<svg width="77" height="26" viewBox="0 0 77 26" fill="none" xmlns="http://www.w3.org/2000/svg">
    <g clip-path="url(#clip0_925_221)">
        <path d="M16.3203 5.72924H19.5679V7.59808C19.9193 6.86146 20.3868 6.30217 20.9697 5.92022C21.5526 5.53827 22.191 5.34729 22.885 5.34729C23.3751 5.34729 23.8887 5.47502 24.4255 5.72924L23.2458 8.93491C22.8017 8.71665 22.4358 8.60752 22.1494 8.60752C21.5665 8.60752 21.0738 8.96219 20.6713 9.67153C20.2688 10.3809 20.0676 11.7723 20.0676 13.8457L20.0815 14.5687V20.5708H16.3203V5.72924Z" fill="white" />
        <path d="M34.5268 5.34729C35.9513 5.34729 37.2906 5.69762 38.5447 6.39766C39.7982 7.0977 40.7767 8.04823 41.4801 9.24865C42.1829 10.4491 42.5349 11.745 42.5349 13.1364C42.5349 14.5371 42.181 15.8466 41.4732 17.065C40.7653 18.284 39.8008 19.2364 38.5794 19.9228C37.3581 20.6092 36.0119 20.9527 34.5407 20.9527C32.3756 20.9527 30.5272 20.1957 28.9962 18.6815C27.4644 17.1673 26.6992 15.3283 26.6992 13.1637C26.6992 10.8447 27.5641 8.91259 29.2945 7.36618C30.8117 6.02005 32.5561 5.34729 34.5268 5.34729ZM34.5893 8.85306C33.4121 8.85306 32.4318 9.25547 31.6489 10.0603C30.8654 10.8651 30.4742 11.895 30.4742 13.15C30.4742 14.4416 30.861 15.4876 31.635 16.2875C32.4091 17.088 33.3888 17.4879 34.5754 17.4879C35.7614 17.4879 36.7487 17.0836 37.5366 16.2738C38.3246 15.4647 38.7182 14.4236 38.7182 13.15C38.7182 11.8771 38.3309 10.8428 37.5575 10.0467C36.7834 9.25113 35.7942 8.85306 34.5893 8.85306Z" fill="white" />
        <path d="M46.3516 0H50.1405V20.5708H46.3516V0Z" fill="white" />
        <path d="M54.3008 0H58.0897V20.5708H54.3008V0Z" fill="white" />
        <path d="M60.9961 5.72925H64.8683L68.7903 15.0418L73.1186 5.72925H77.0015L67.5444 26H63.6312L66.7362 19.4634L60.9961 5.72925Z" fill="white" />
        <path d="M11.9219 11.6699C11.3478 10.8105 10.4412 10.0944 9.20162 9.52143C9.94161 8.97578 10.4759 8.39169 10.8046 7.76854C11.1327 7.14601 11.2973 6.45217 11.2973 5.68827C11.2973 4.51513 10.9358 3.49701 10.2135 2.63266C9.49118 1.76892 8.51841 1.17801 7.29519 0.859308C6.43344 0.623068 5.07206 0.504639 3.20978 0.504639H0V4.14682H3.88605H4.62794H4.88911C5.78051 4.14682 6.4448 4.33098 6.88135 4.69929C7.3179 5.0676 7.53617 5.5655 7.53617 6.19299C7.53617 6.86637 7.30654 7.39837 6.84665 7.789C6.38676 8.18026 5.68336 8.37557 4.73581 8.37557H4.62794H3.88605H0V20.5707H5.72436C7.37278 20.5707 8.6654 20.3413 9.60032 19.8819C10.5359 19.423 11.2998 18.7292 11.8928 17.8016C12.4858 16.874 12.7823 15.8466 12.7823 14.7187C12.7823 13.5456 12.4953 12.5293 11.9219 11.6699ZM8.1235 16.3284C7.56204 16.7289 6.47445 16.9286 4.86009 16.9286H3.88605V11.7859H4.69292C6.22337 11.7859 7.31853 12.0364 7.97714 12.5361C8.63575 13.0365 8.96505 13.7186 8.96505 14.5823C8.96568 15.3462 8.68495 15.9278 8.1235 16.3284Z" fill="#FBC02D" />
    </g>
    <defs>
        <clipPath id="clip0_925_221">
            <rect width="77" height="26" fill="white" />
        </clipPath>
    </defs>
</svg>