<svg width="1023" height="786" viewBox="0 0 1023 786" fill="none" xmlns="http://www.w3.org/2000/svg">
<g clip-path="url(#clip0_816_1938)">
<path opacity="0.1" d="M468.629 693.88C703.35 693.88 893.629 679.105 893.629 660.88C893.629 642.655 703.35 627.88 468.629 627.88C233.908 627.88 43.6289 642.655 43.6289 660.88C43.6289 679.105 233.908 693.88 468.629 693.88Z" fill="#F9A826"/>
<g opacity="0.1">
<path opacity="0.1" d="M845.05 472.84C842.51 465.13 832.21 461.58 822.05 464.92C820.586 465.397 819.17 466.01 817.82 466.75C817.17 466.57 816.5 466.41 815.82 466.29C816.375 464.072 816.587 461.782 816.45 459.5C819.954 457.155 822.797 453.949 824.706 450.19C826.615 446.43 827.525 442.243 827.35 438.03C830.845 435.679 833.678 432.47 835.58 428.711C837.481 424.952 838.387 420.769 838.21 416.56C841.732 414.239 844.572 411.022 846.44 407.24C851.34 397.54 849.31 386.64 841.9 382.89C834.49 379.14 824.5 383.97 819.6 393.67C817.657 397.414 816.749 401.608 816.97 405.82C813.475 408.171 810.641 411.38 808.74 415.139C806.838 418.898 805.933 423.081 806.11 427.29C802.615 429.641 799.781 432.85 797.88 436.609C795.978 440.368 795.073 444.551 795.25 448.76C791.746 451.108 788.905 454.316 786.996 458.077C785.088 461.838 784.176 466.026 784.35 470.24C780.828 472.561 777.987 475.778 776.12 479.56C775.199 481.383 774.5 483.31 774.04 485.3C772.811 483.505 771.314 481.909 769.6 480.57C769.404 479.043 769.069 477.537 768.6 476.07C765.26 465.9 756.3 459.7 748.6 462.24C740.9 464.78 737.34 475.07 740.68 485.24C742.047 489.601 744.678 493.457 748.24 496.32C748.436 497.847 748.771 499.353 749.24 500.82C751.18 506.72 755.01 511.28 759.39 513.57C759.002 514.844 758.724 516.149 758.56 517.47C754.43 521.442 751.771 526.699 751.02 532.38C746.886 536.354 744.228 541.615 743.48 547.3C741.433 549.265 739.742 551.569 738.48 554.11C733.57 563.81 735.6 574.72 743.01 578.46C750.42 582.2 760.41 577.39 765.32 567.68C766.614 565.148 767.46 562.411 767.82 559.59C771.95 555.618 774.608 550.361 775.36 544.68C779.493 540.706 782.152 535.445 782.9 529.76C787.002 525.778 789.629 520.521 790.35 514.85C794.498 510.877 797.165 505.606 797.91 499.91C799.182 498.704 800.318 497.363 801.3 495.91C805.385 496.749 809.621 496.483 813.57 495.14C815.033 494.663 816.45 494.05 817.8 493.31C822.223 494.476 826.891 494.309 831.22 492.83C841.35 489.52 847.58 480.56 845.05 472.84Z" fill="#3F3D56"/>
<g opacity="0.1">
<path opacity="0.1" d="M827.12 442.44C826.071 443.472 824.918 444.394 823.68 445.19C823.837 448.045 823.461 450.903 822.57 453.62C823.357 452.532 824.059 451.385 824.67 450.19C825.91 447.76 826.738 445.141 827.12 442.44Z" fill="black"/>
<path opacity="0.1" d="M837.98 420.97C836.93 422.002 835.777 422.924 834.54 423.72C834.697 426.575 834.32 429.433 833.43 432.15C834.219 431.06 834.921 429.91 835.53 428.71C836.765 426.282 837.593 423.667 837.98 420.97Z" fill="black"/>
<path opacity="0.1" d="M813.353 412.98C813.261 411.508 813.318 410.031 813.523 408.57C811.581 410.484 809.966 412.703 808.743 415.14C808.139 416.342 807.631 417.589 807.223 418.87C808.878 416.539 810.957 414.541 813.353 412.98V412.98Z" fill="black"/>
<path opacity="0.1" d="M744.422 542.91C745.296 541.692 746.283 540.56 747.372 539.53C747.542 538.173 747.833 536.835 748.242 535.53C747.372 536.698 746.606 537.939 745.952 539.24C745.347 540.422 744.836 541.649 744.422 542.91V542.91Z" fill="black"/>
<path opacity="0.1" d="M751.961 528.01C752.835 526.792 753.822 525.66 754.911 524.63C755.074 523.308 755.352 522.004 755.741 520.73V520.73C754.911 521.864 754.175 523.065 753.541 524.32C752.923 525.509 752.394 526.742 751.961 528.01V528.01Z" fill="black"/>
<path opacity="0.1" d="M816.251 463.91C815.208 464.942 814.058 465.86 812.821 466.65C812.958 468.932 812.746 471.222 812.191 473.44C812.866 473.557 813.534 473.71 814.191 473.9C815.541 473.16 816.958 472.547 818.421 472.07C828.601 468.73 838.891 472.28 841.421 479.99C842.049 481.928 842.16 483.996 841.741 485.99C845.091 482.05 846.481 477.25 845.041 472.85C842.501 465.14 832.201 461.59 822.041 464.93C820.578 465.407 819.161 466.02 817.811 466.76C817.161 466.58 816.491 466.42 815.811 466.3C816.001 465.5 816.141 464.71 816.251 463.91Z" fill="black"/>
<path opacity="0.1" d="M740.701 550.4C739.832 551.568 739.065 552.809 738.411 554.11C737.803 555.316 737.289 556.566 736.871 557.85C737.764 556.626 738.768 555.488 739.871 554.45C740.025 553.078 740.303 551.722 740.701 550.4V550.4Z" fill="black"/>
<path opacity="0.1" d="M802.443 434.45C802.351 432.978 802.408 431.501 802.612 430.04C800.671 431.954 799.056 434.173 797.832 436.61C797.229 437.812 796.721 439.059 796.312 440.34C797.968 438.009 800.047 436.011 802.443 434.45V434.45Z" fill="black"/>
<path opacity="0.1" d="M786.75 522.01C786.553 523.498 786.218 524.964 785.75 526.39C786.532 525.298 787.231 524.148 787.84 522.95C788.495 521.665 789.041 520.327 789.47 518.95C788.651 520.045 787.741 521.069 786.75 522.01V522.01Z" fill="black"/>
<path opacity="0.1" d="M771.672 551.83C771.475 553.318 771.141 554.784 770.672 556.21C771.461 555.12 772.163 553.97 772.772 552.77C773.423 551.483 773.968 550.145 774.402 548.77C773.582 549.867 772.669 550.891 771.672 551.83V551.83Z" fill="black"/>
<path opacity="0.1" d="M779.211 536.91C779.015 538.398 778.68 539.864 778.211 541.29C779.008 540.218 779.723 539.089 780.351 537.91C781.006 536.625 781.552 535.287 781.981 533.91C781.144 534.986 780.217 535.99 779.211 536.91V536.91Z" fill="black"/>
<path opacity="0.1" d="M794.293 507.1C794.097 508.585 793.762 510.048 793.293 511.47C794.077 510.383 794.776 509.236 795.383 508.04C796.046 506.733 796.594 505.371 797.023 503.97C796.208 505.093 795.295 506.14 794.293 507.1V507.1Z" fill="black"/>
<path opacity="0.1" d="M744.921 469.39C752.641 466.86 761.601 473.05 764.921 483.22C765.39 484.69 765.724 486.2 765.921 487.73C767.636 489.069 769.133 490.665 770.361 492.46C770.822 490.467 771.52 488.536 772.441 486.71C772.791 486.03 773.171 485.38 773.561 484.71C772.427 483.139 771.081 481.733 769.561 480.53C769.365 479.003 769.031 477.497 768.561 476.03C765.221 465.86 756.261 459.66 748.561 462.2C744.161 463.64 741.121 467.61 739.941 472.63C741.295 471.139 743.01 470.023 744.921 469.39V469.39Z" fill="black"/>
<path opacity="0.1" d="M780.72 477.39C780.632 475.921 780.692 474.447 780.9 472.99C778.952 474.901 777.333 477.121 776.11 479.56C775.504 480.757 774.996 482.001 774.59 483.28C776.249 480.953 778.328 478.955 780.72 477.39V477.39Z" fill="black"/>
<path opacity="0.1" d="M791.579 455.91C791.491 454.441 791.551 452.967 791.759 451.51C789.809 453.415 788.19 455.632 786.969 458.07C786.366 459.272 785.857 460.519 785.449 461.8C787.104 459.469 789.184 457.471 791.579 455.91V455.91Z" fill="black"/>
<path opacity="0.1" d="M764.133 566.74C763.936 568.231 763.602 569.701 763.133 571.13C764.776 568.854 766.036 566.323 766.863 563.64C766.045 564.751 765.132 565.789 764.133 566.74V566.74Z" fill="black"/>
</g>
<path opacity="0.1" d="M859.869 373.62C863.394 371.302 866.235 368.084 868.099 364.3C873.009 354.6 870.979 343.69 863.569 339.94C856.159 336.19 846.169 341.02 841.259 350.73C839.314 354.483 838.41 358.689 838.639 362.91C835.144 365.261 832.31 368.47 830.409 372.229C828.508 375.988 827.602 380.171 827.779 384.38C824.252 386.696 821.41 389.914 819.549 393.7C818.947 394.887 818.442 396.121 818.039 397.39C820.65 393.61 824.436 390.797 828.809 389.39C829.307 390.93 830.105 392.357 831.158 393.586C832.211 394.816 833.497 395.825 834.943 396.554C836.388 397.283 837.963 397.718 839.578 397.834C841.193 397.95 842.814 397.745 844.349 397.23C845.826 401.578 845.826 406.292 844.349 410.64C845.13 409.563 845.826 408.426 846.429 407.24C848.369 403.496 849.273 399.301 849.049 395.09C852.548 392.743 855.385 389.535 857.287 385.775C859.189 382.015 860.092 377.83 859.909 373.62H859.869Z" fill="#3F3D56"/>
<path opacity="0.1" d="M979.231 235.98C982.246 234.573 985.159 232.96 987.951 231.15L955.621 207.53L993.621 227.1C1001.31 220.993 1007.67 213.381 1012.31 204.73C1016.95 196.08 1019.78 186.572 1020.62 176.79L956.041 177.45L1020.76 166.63C1020.09 156.838 1017.43 147.287 1012.93 138.562C1008.44 129.838 1002.21 122.124 994.622 115.896C987.037 109.667 978.259 105.055 968.826 102.343C959.394 99.6307 949.507 98.8754 939.772 100.123C930.038 101.372 920.661 104.597 912.218 109.601C903.775 114.605 896.444 121.282 890.676 129.223C884.908 137.163 880.824 146.199 878.675 155.775C876.526 165.352 876.358 175.266 878.181 184.91C873.486 187.093 869.041 189.775 864.921 192.91L898.671 239.84L858.151 198.76C849.599 207.157 843.277 217.554 839.755 229.01C836.233 240.466 835.623 252.619 837.981 264.37C825.74 270.083 815.354 279.125 808.009 290.462C800.663 301.798 796.655 314.973 796.443 328.479C796.23 341.986 799.821 355.28 806.806 366.842C813.791 378.405 823.887 387.769 835.942 393.865C847.997 399.961 861.523 402.542 874.976 401.315C888.428 400.088 901.264 395.101 912.016 386.924C922.769 378.747 931.004 367.71 935.781 355.075C940.558 342.44 941.684 328.715 939.031 315.47C953.679 308.652 965.608 297.106 972.899 282.688C980.19 268.27 982.421 251.819 979.231 235.98Z" fill="#F9A826"/>
<path opacity="0.1" d="M844.35 217.66C837.035 232.071 834.798 248.529 838 264.37C825.76 270.083 815.373 279.125 808.028 290.462C800.683 301.798 796.675 314.973 796.462 328.479C796.249 341.986 799.841 355.28 806.826 366.842C813.81 378.405 823.907 387.769 835.962 393.865C848.016 399.961 861.543 402.542 874.995 401.315C888.448 400.088 901.283 395.101 912.036 386.924C922.788 378.747 931.024 367.71 935.801 355.075C940.578 342.44 941.704 328.715 939.05 315.47C953.18 308.91 847.97 210.45 844.35 217.66Z" fill="black"/>
<path opacity="0.1" d="M925.491 113.41C931.395 113.41 936.181 108.624 936.181 102.72C936.181 96.8161 931.395 92.03 925.491 92.03C919.587 92.03 914.801 96.8161 914.801 102.72C914.801 108.624 919.587 113.41 925.491 113.41Z" fill="#F9A826"/>
<path opacity="0.1" d="M987.928 120.27C993.832 120.27 998.618 115.484 998.618 109.58C998.618 103.676 993.832 98.89 987.928 98.89C982.024 98.89 977.238 103.676 977.238 109.58C977.238 115.484 982.024 120.27 987.928 120.27Z" fill="#F9A826"/>
<path opacity="0.1" d="M1012.01 216.33C1017.91 216.33 1022.7 211.544 1022.7 205.64C1022.7 199.736 1017.91 194.95 1012.01 194.95C1006.11 194.95 1001.32 199.736 1001.32 205.64C1001.32 211.544 1006.11 216.33 1012.01 216.33Z" fill="#F9A826"/>
<path opacity="0.1" d="M979.51 264.3C985.414 264.3 990.2 259.514 990.2 253.61C990.2 247.706 985.414 242.92 979.51 242.92C973.606 242.92 968.82 247.706 968.82 253.61C968.82 259.514 973.606 264.3 979.51 264.3Z" fill="#F9A826"/>
<path opacity="0.1" d="M935.112 363.93C941.016 363.93 945.802 359.144 945.802 353.24C945.802 347.336 941.016 342.55 935.112 342.55C929.208 342.55 924.422 347.336 924.422 353.24C924.422 359.144 929.208 363.93 935.112 363.93Z" fill="#F9A826"/>
<path opacity="0.1" d="M935.112 363.93C941.016 363.93 945.802 359.144 945.802 353.24C945.802 347.336 941.016 342.55 935.112 342.55C929.208 342.55 924.422 347.336 924.422 353.24C924.422 359.144 929.208 363.93 935.112 363.93Z" fill="black"/>
<path opacity="0.1" d="M836.389 251.09C842.293 251.09 847.079 246.304 847.079 240.4C847.079 234.496 842.293 229.71 836.389 229.71C830.485 229.71 825.699 234.496 825.699 240.4C825.699 246.304 830.485 251.09 836.389 251.09Z" fill="#F9A826"/>
<path opacity="0.1" d="M836.389 251.09C842.293 251.09 847.079 246.304 847.079 240.4C847.079 234.496 842.293 229.71 836.389 229.71C830.485 229.71 825.699 234.496 825.699 240.4C825.699 246.304 830.485 251.09 836.389 251.09Z" fill="black"/>
<path opacity="0.1" d="M824.989 416.23C817.879 412.64 815.729 402.47 819.879 393.09C819.659 393.47 819.449 393.86 819.249 394.27C814.339 403.97 816.369 414.87 823.779 418.62C831.189 422.37 841.179 417.54 846.079 407.84C846.289 407.44 846.469 407.03 846.649 406.63C841.559 415.54 832.089 419.83 824.989 416.23Z" fill="black"/>
<path opacity="0.1" d="M814.431 437.11C807.331 433.52 805.171 423.35 809.331 413.96C809.111 414.35 808.891 414.74 808.691 415.14C803.781 424.84 805.811 435.75 813.221 439.49C820.631 443.23 830.621 438.42 835.531 428.71C835.731 428.31 835.921 427.91 836.101 427.5C831.001 436.41 821.541 440.7 814.431 437.11Z" fill="black"/>
<path opacity="0.1" d="M803.869 457.98C796.769 454.39 794.609 444.22 798.769 434.84C798.549 435.22 798.329 435.61 798.129 436.02C793.219 445.72 795.259 456.62 802.669 460.37C810.079 464.12 820.059 459.29 824.969 449.59C825.169 449.19 825.359 448.78 825.539 448.38C820.449 457.29 810.979 461.58 803.869 457.98Z" fill="black"/>
<path opacity="0.1" d="M793.351 478.91C786.241 475.32 784.091 465.15 788.241 455.77C788.021 456.15 787.811 456.54 787.601 456.94C782.701 466.64 784.731 477.55 792.141 481.3C799.551 485.05 809.541 480.22 814.441 470.51C814.651 470.11 814.831 469.71 815.011 469.3C809.891 478.16 800.421 482.45 793.351 478.91Z" fill="black"/>
<path opacity="0.1" d="M782.759 499.73C775.649 496.14 773.499 485.97 777.649 476.59C777.429 476.97 777.219 477.36 777.019 477.77C772.109 487.47 774.139 498.37 781.549 502.12C788.959 505.87 798.949 501.04 803.859 491.34C804.059 490.94 804.249 490.53 804.429 490.13C799.349 499.04 789.859 503.33 782.759 499.73Z" fill="black"/>
<path opacity="0.1" d="M772.2 520.61C765.1 517.02 762.94 506.85 767.1 497.47C766.88 497.85 766.66 498.24 766.46 498.64C761.55 508.34 763.58 519.25 771 523C778.42 526.75 788.35 521.91 793.35 512.21C793.55 511.81 793.74 511.41 793.92 511C788.77 519.91 779.35 524.2 772.2 520.61Z" fill="black"/>
<path opacity="0.1" d="M761.642 541.48C754.542 537.89 752.382 527.72 756.542 518.34C756.322 518.73 756.112 519.11 755.902 519.52C751.002 529.22 753.032 540.12 760.442 543.87C767.852 547.62 777.842 542.79 782.742 533.09C782.952 532.69 783.132 532.28 783.312 531.88C778.222 540.79 768.752 545.08 761.642 541.48Z" fill="black"/>
<path opacity="0.1" d="M751.091 562.36C743.981 558.77 741.831 548.6 745.981 539.22C745.761 539.6 745.551 539.99 745.351 540.39C740.441 550.09 742.471 561 749.881 564.75C757.291 568.5 767.281 563.67 772.191 553.96C772.391 553.56 772.571 553.16 772.751 552.75C767.661 561.66 758.191 565.91 751.091 562.36Z" fill="black"/>
<path opacity="0.1" d="M744.149 576.08C737.049 572.48 734.889 562.32 739.049 552.93C738.829 553.32 738.609 553.71 738.409 554.11C733.499 563.81 735.529 574.72 742.939 578.46C750.349 582.2 760.339 577.39 765.249 567.68C765.449 567.28 765.639 566.88 765.819 566.47C760.719 575.38 751.249 579.67 744.149 576.08Z" fill="black"/>
<path opacity="0.1" d="M934.939 483.17C936.041 480.011 936.713 476.718 936.939 473.38C937.674 473.378 938.4 473.225 939.072 472.93C939.745 472.635 940.349 472.204 940.848 471.665C941.347 471.126 941.729 470.49 941.97 469.796C942.212 469.102 942.308 468.366 942.252 467.634C942.196 466.902 941.99 466.189 941.646 465.54C941.302 464.891 940.828 464.32 940.253 463.862C939.678 463.405 939.016 463.071 938.306 462.881C937.596 462.691 936.855 462.65 936.129 462.76C934.94 457.347 932.561 452.268 929.164 447.89C925.767 443.512 921.437 439.945 916.489 437.45C917.128 436.185 917.239 434.718 916.796 433.371C916.354 432.025 915.394 430.909 914.129 430.27C912.864 429.631 911.397 429.52 910.05 429.963C908.704 430.406 907.588 431.365 906.949 432.63C906.718 433.08 906.556 433.562 906.469 434.06C900.602 432.967 894.558 433.29 888.841 435.004C883.124 436.717 877.898 439.77 873.599 443.91C870.352 443.385 867.051 443.287 863.779 443.62L859.449 463.33L859.189 444.33C854.219 445.419 849.524 447.511 845.39 450.476C841.256 453.442 837.77 457.219 835.145 461.578C832.52 465.937 830.812 470.785 830.124 475.826C829.437 480.867 829.785 485.995 831.146 490.897C832.508 495.8 834.855 500.373 838.044 504.337C841.233 508.301 845.197 511.574 849.694 513.954C854.19 516.334 859.125 517.773 864.197 518.181C869.268 518.59 874.369 517.96 879.189 516.33C879.704 517.26 880.489 518.013 881.439 518.49C882.418 518.987 883.527 519.171 884.614 519.015C885.702 518.859 886.714 518.372 887.515 517.62C888.315 516.868 888.864 515.887 889.087 514.812C889.309 513.736 889.195 512.618 888.759 511.61C890.465 510.439 892.07 509.127 893.559 507.69C901.366 508.959 909.374 507.724 916.436 504.162C923.498 500.6 929.25 494.893 932.869 487.86L912.719 484.47L934.939 483.17Z" fill="#F9A826"/>
<g opacity="0.1">
<path opacity="0.1" d="M903.808 492.74C896.368 482.92 891.808 471.29 886.558 460.13C884.45 455.549 882.09 451.089 879.488 446.77L875.548 442.18C874.888 442.74 874.228 443.32 873.548 443.93C870.302 443.405 867 443.307 863.728 443.64L859.398 463.35L859.138 444.35C854.168 445.439 849.473 447.531 845.339 450.496C841.205 453.462 837.719 457.24 835.094 461.598C832.469 465.957 830.761 470.805 830.074 475.846C829.386 480.887 829.734 486.015 831.096 490.917C832.457 495.82 834.804 500.393 837.993 504.357C841.182 508.321 845.146 511.594 849.643 513.974C854.14 516.354 859.074 517.793 864.146 518.201C869.217 518.61 874.319 517.98 879.138 516.35C879.654 517.28 880.438 518.033 881.388 518.51C882.368 519.007 883.476 519.191 884.564 519.035C885.651 518.879 886.664 518.392 887.464 517.64C888.264 516.888 888.813 515.907 889.036 514.832C889.259 513.756 889.144 512.638 888.708 511.63C890.414 510.459 892.02 509.147 893.508 507.71C901.152 508.947 908.991 507.787 915.948 504.39C911.304 501.182 907.205 497.248 903.808 492.74V492.74Z" fill="black"/>
</g>
<path opacity="0.1" d="M772.06 450.54C772.472 449.725 772.669 448.817 772.63 447.905C772.592 446.992 772.32 446.104 771.84 445.327C771.36 444.549 770.689 443.908 769.891 443.464C769.093 443.019 768.194 442.787 767.28 442.79C765.764 434.754 761.654 427.436 755.58 421.96C756.559 418.142 756.93 414.194 756.68 410.26L737.03 406.91L756.11 405.71C755.767 403.918 755.296 402.154 754.7 400.43C755.443 399.919 756.048 399.232 756.46 398.43C756.941 397.474 757.125 396.396 756.987 395.335C756.849 394.273 756.396 393.278 755.687 392.477C754.977 391.676 754.043 391.106 753.007 390.841C751.97 390.576 750.877 390.628 749.87 390.99C744.817 383.85 737.422 378.705 728.97 376.45C720.518 374.196 711.543 374.973 703.605 378.648C695.666 382.323 689.266 388.663 685.517 396.567C681.767 404.47 680.905 413.437 683.08 421.91C681.923 422.398 680.979 423.285 680.42 424.41C679.93 425.378 679.746 426.473 679.893 427.549C680.041 428.624 680.513 429.629 681.246 430.43C681.979 431.23 682.939 431.788 683.997 432.03C685.056 432.271 686.162 432.184 687.17 431.78C689.088 435.001 691.478 437.917 694.26 440.43C692.235 448.328 692.846 456.671 696 464.19L722.35 457.35L698.85 469.71C703.005 476.313 709.12 481.451 716.339 484.408C723.559 487.364 731.522 487.991 739.114 486.199C746.707 484.408 753.55 480.288 758.686 474.416C763.822 468.544 766.995 461.214 767.76 453.45C768.665 453.372 769.536 453.063 770.288 452.554C771.041 452.045 771.651 451.351 772.06 450.54V450.54Z" fill="#F9A826"/>
<path opacity="0.1" d="M772.058 450.54C772.471 449.725 772.667 448.817 772.628 447.905C772.59 446.992 772.318 446.104 771.838 445.327C771.359 444.549 770.687 443.908 769.889 443.464C769.091 443.019 768.192 442.787 767.278 442.79C765.763 434.753 761.652 427.436 755.578 421.96C755.738 421.33 755.878 420.71 755.998 420.08C755.301 420.586 754.654 421.158 754.068 421.79C750.518 425.68 748.698 430.91 745.188 434.84C741.048 439.48 734.848 441.9 728.658 442.55C722.468 443.2 716.238 442.25 710.128 441.06C705.068 440.06 699.938 438.9 694.808 439.39C694.308 439.39 693.808 439.5 693.348 439.58C693.648 439.87 693.948 440.16 694.258 440.44C692.233 448.338 692.844 456.681 695.998 464.2L722.348 457.35L698.848 469.71C703.003 476.313 709.118 481.451 716.338 484.408C723.557 487.364 731.52 487.991 739.112 486.199C746.705 484.407 753.548 480.288 758.684 474.416C763.82 468.544 766.993 461.214 767.758 453.45C768.664 453.372 769.534 453.063 770.287 452.554C771.039 452.045 771.649 451.351 772.058 450.54V450.54Z" fill="black"/>
</g>
<g opacity="0.1">
<path opacity="0.1" d="M89.4904 511.24C90.7704 507.35 95.9604 505.56 101.08 507.24C101.817 507.481 102.53 507.789 103.21 508.16C103.54 508.07 103.88 507.99 104.21 507.93C103.929 506.813 103.822 505.66 103.89 504.51C102.133 503.321 100.708 501.704 99.7506 499.81C98.7934 497.917 98.3355 495.81 98.4204 493.69C96.6475 492.523 95.2182 490.904 94.2804 489C93.3031 487.114 92.8442 485.002 92.9504 482.88C91.1787 481.707 89.75 480.086 88.8104 478.18C86.3504 473.3 87.3504 467.81 91.1004 465.91C94.8504 464.01 99.8704 466.46 102.34 471.34C103.316 473.23 103.771 475.346 103.66 477.47C105.423 478.651 106.851 480.266 107.809 482.159C108.767 484.053 109.222 486.16 109.13 488.28C110.892 489.464 112.32 491.081 113.278 492.976C114.236 494.87 114.691 496.979 114.6 499.1C116.363 500.281 117.791 501.896 118.749 503.789C119.707 505.683 120.162 507.79 120.07 509.91C121.846 511.081 123.278 512.703 124.22 514.61C124.67 515.533 125.006 516.506 125.22 517.51C125.836 516.603 126.589 515.797 127.45 515.12C127.553 514.349 127.727 513.589 127.97 512.85C129.66 507.73 134.17 504.61 138.06 505.85C141.95 507.09 143.73 512.32 142.06 517.44C141.37 519.639 140.044 521.584 138.25 523.03C138.146 523.798 137.972 524.554 137.73 525.29C136.91 528.004 135.081 530.301 132.62 531.71C132.813 532.364 132.954 533.033 133.04 533.71C134.073 534.701 134.928 535.861 135.57 537.14C136.225 538.416 136.651 539.797 136.83 541.22C137.867 542.21 138.726 543.37 139.37 544.65C140.023 545.927 140.45 547.307 140.63 548.73C141.669 549.722 142.528 550.885 143.17 552.17C145.64 557.05 144.62 562.55 140.89 564.43C137.16 566.31 132.12 563.89 129.65 559C128.999 557.722 128.573 556.342 128.39 554.92C126.307 552.921 124.967 550.272 124.59 547.41C122.507 545.411 121.167 542.762 120.79 539.9C119.755 538.909 118.896 537.749 118.25 536.47C117.604 535.191 117.178 533.811 116.99 532.39C115.958 531.399 115.102 530.239 114.46 528.96C113.806 527.684 113.38 526.303 113.2 524.88C112.557 524.28 111.983 523.609 111.49 522.88C109.433 523.301 107.301 523.17 105.31 522.5C104.571 522.253 103.855 521.942 103.17 521.57C100.946 522.161 98.5969 522.077 96.4204 521.33C91.3504 519.64 88.2204 515.13 89.4904 511.24Z" fill="#3F3D56"/>
<g opacity="0.1">
<path opacity="0.1" d="M98.5195 495.91C99.0497 496.432 99.6329 496.898 100.26 497.3C100.175 498.736 100.365 500.175 100.82 501.54C100.418 500.994 100.063 500.416 99.7595 499.81C99.1341 498.587 98.7151 497.269 98.5195 495.91V495.91Z" fill="black"/>
<path opacity="0.1" d="M93.0508 485.11C93.5837 485.626 94.1665 486.089 94.7908 486.49C94.7068 487.929 94.8968 489.372 95.3508 490.74C94.1395 489.077 93.3502 487.145 93.0508 485.11V485.11Z" fill="black"/>
<path opacity="0.1" d="M105.482 481.08C105.53 480.339 105.503 479.595 105.402 478.86C106.38 479.825 107.194 480.943 107.812 482.17C108.114 482.776 108.368 483.405 108.572 484.05C107.739 482.874 106.691 481.866 105.482 481.08V481.08Z" fill="black"/>
<path opacity="0.1" d="M140.182 546.54C139.744 545.927 139.249 545.357 138.702 544.84C138.61 544.162 138.463 543.493 138.262 542.84C138.696 543.427 139.08 544.049 139.412 544.7C139.715 545.293 139.973 545.908 140.182 546.54V546.54Z" fill="black"/>
<path opacity="0.1" d="M136.353 539.03C135.916 538.417 135.42 537.847 134.873 537.33C134.791 536.652 134.651 535.983 134.453 535.33C135.277 536.445 135.912 537.689 136.333 539.01L136.353 539.03Z" fill="black"/>
<path opacity="0.1" d="M104.001 506.75C104.526 507.268 105.106 507.728 105.731 508.12C105.657 509.27 105.765 510.424 106.051 511.54C105.714 511.6 105.38 511.676 105.051 511.77C104.366 511.401 103.65 511.093 102.911 510.85C97.7913 509.17 92.6013 510.96 91.3313 514.85C91.013 515.818 90.9544 516.852 91.1613 517.85C90.3386 516.985 89.7535 515.921 89.4626 514.763C89.1718 513.605 89.1851 512.391 89.5013 511.24C90.7813 507.35 95.9713 505.56 101.091 507.24C101.828 507.481 102.541 507.789 103.221 508.16C103.551 508.07 103.891 507.99 104.221 507.93C104.125 507.541 104.052 507.147 104.001 506.75V506.75Z" fill="black"/>
<path opacity="0.1" d="M142.062 550.31C142.499 550.899 142.883 551.525 143.212 552.18C143.518 552.786 143.775 553.414 143.982 554.06C143.545 553.444 143.05 552.871 142.502 552.35C142.413 551.659 142.266 550.976 142.062 550.31V550.31Z" fill="black"/>
<path opacity="0.1" d="M110.951 491.91C110.999 491.169 110.972 490.425 110.871 489.69C111.851 490.653 112.665 491.772 113.281 493C113.583 493.603 113.837 494.228 114.041 494.87C113.208 493.697 112.159 492.692 110.951 491.91V491.91Z" fill="black"/>
<path opacity="0.1" d="M118.863 536.01C118.956 536.757 119.12 537.494 119.353 538.21C118.519 537.067 117.884 535.793 117.473 534.44C117.888 535.004 118.353 535.529 118.863 536.01V536.01Z" fill="black"/>
<path opacity="0.1" d="M126.45 551.03C126.551 551.777 126.719 552.513 126.95 553.23C126.548 552.684 126.194 552.106 125.89 551.5C125.561 550.857 125.287 550.188 125.07 549.5C125.489 550.046 125.951 550.557 126.45 551.03V551.03Z" fill="black"/>
<path opacity="0.1" d="M122.66 543.52C122.753 544.267 122.917 545.004 123.15 545.72C122.751 545.172 122.397 544.594 122.09 543.99C121.759 543.348 121.485 542.679 121.27 541.99C121.687 542.54 122.152 543.052 122.66 543.52V543.52Z" fill="black"/>
<path opacity="0.1" d="M115.063 528.49C115.155 529.241 115.319 529.981 115.553 530.7C115.173 530.151 114.839 529.573 114.553 528.97C114.217 528.329 113.94 527.66 113.723 526.97C114.122 527.516 114.571 528.025 115.063 528.49V528.49Z" fill="black"/>
<path opacity="0.1" d="M139.93 509.5C136.04 508.22 131.53 511.34 129.85 516.5C129.607 517.239 129.433 517.999 129.33 518.77C128.466 519.443 127.71 520.246 127.09 521.15C126.858 520.145 126.506 519.171 126.04 518.25C125.87 517.91 125.68 517.58 125.48 517.25C126.048 516.462 126.721 515.755 127.48 515.15C127.583 514.379 127.757 513.619 128 512.88C129.69 507.76 134.2 504.64 138.09 505.88C139.206 506.308 140.192 507.018 140.952 507.939C141.713 508.861 142.222 509.963 142.43 511.14C141.751 510.389 140.89 509.824 139.93 509.5V509.5Z" fill="black"/>
<path opacity="0.1" d="M121.892 513.53C121.94 512.789 121.913 512.045 121.812 511.31C122.792 512.273 123.607 513.392 124.222 514.62C124.524 515.226 124.779 515.855 124.982 516.5C124.152 515.322 123.103 514.313 121.892 513.53V513.53Z" fill="black"/>
<path opacity="0.1" d="M116.42 502.71C116.467 501.969 116.44 501.226 116.34 500.49C117.315 501.457 118.129 502.575 118.75 503.8C119.052 504.406 119.306 505.035 119.51 505.68C118.677 504.504 117.628 503.496 116.42 502.71V502.71Z" fill="black"/>
<path opacity="0.1" d="M130.251 558.54C130.347 559.291 130.515 560.031 130.751 560.75C130.351 560.2 129.997 559.618 129.691 559.01C129.362 558.367 129.088 557.698 128.871 557.01C129.29 557.556 129.751 558.067 130.251 558.54Z" fill="black"/>
</g>
<path opacity="0.1" d="M82.0191 461.25C80.2462 460.083 78.817 458.464 77.8791 456.56C75.4091 451.67 76.4291 446.18 80.1591 444.29C83.8891 442.4 88.9291 444.83 91.3991 449.72C92.3761 451.606 92.8318 453.719 92.7191 455.84C94.4808 457.024 95.9089 458.641 96.8667 460.536C97.8245 462.43 98.2798 464.539 98.1891 466.66C99.9632 467.828 101.395 469.447 102.339 471.35C102.639 471.95 102.893 472.572 103.099 473.21C101.774 471.32 99.8674 469.915 97.6691 469.21C97.4243 469.991 97.0262 470.716 96.4981 471.341C95.97 471.967 95.3225 472.481 94.5935 472.853C93.8645 473.226 93.0686 473.449 92.2522 473.51C91.4359 473.571 90.6156 473.469 89.8391 473.21C89.0977 475.399 89.0977 477.771 89.8391 479.96C89.4634 479.416 89.1291 478.844 88.8391 478.25C87.8619 476.364 87.4029 474.252 87.5091 472.13C85.7495 470.943 84.323 469.326 83.3655 467.432C82.408 465.538 81.9513 463.431 82.0391 461.31L82.0191 461.25Z" fill="#3F3D56"/>
<path opacity="0.1" d="M21.8983 391.91C20.3814 391.201 18.9146 390.389 17.5083 389.48L33.7883 377.58L14.6483 387.43C10.7784 384.353 7.57714 380.518 5.24039 376.161C2.90365 371.804 1.48058 367.016 1.05828 362.09L33.5983 362.43L0.988281 356.97C1.26907 351.995 2.5713 347.132 4.81384 342.682C7.05639 338.233 10.1912 334.293 14.023 331.107C17.8547 327.922 22.3014 325.56 27.0858 324.169C31.8702 322.777 36.89 322.386 41.8322 323.019C46.7745 323.652 51.5335 325.297 55.8126 327.849C60.0917 330.402 63.7993 333.809 66.7044 337.857C69.6094 341.905 71.6498 346.508 72.6982 351.379C73.7466 356.25 73.7807 361.285 72.7983 366.17C75.1604 367.263 77.3996 368.604 79.4783 370.17L62.4783 393.81L82.8883 373.13C87.1951 377.361 90.3795 382.598 92.1535 388.368C93.9274 394.139 94.235 400.261 93.0483 406.18C99.2224 409.056 104.463 413.611 108.17 419.325C111.877 425.039 113.901 431.68 114.011 438.491C114.121 445.301 112.312 452.004 108.792 457.835C105.271 463.665 100.181 468.387 94.1025 471.461C88.0244 474.535 81.2041 475.836 74.4213 475.216C67.6386 474.596 61.1673 472.079 55.7475 467.954C50.3276 463.829 46.178 458.262 43.7731 451.89C41.3682 445.518 40.8051 438.597 42.1483 431.92C34.7792 428.486 28.7772 422.676 25.1051 415.422C21.433 408.169 20.3037 399.892 21.8983 391.92V391.91Z" fill="#F9A826"/>
<path opacity="0.1" d="M89.8502 382.69C93.5383 389.949 94.6659 398.24 93.0501 406.22C99.2243 409.096 104.464 413.651 108.172 419.365C111.879 425.079 113.903 431.72 114.013 438.531C114.123 445.341 112.314 452.044 108.793 457.875C105.273 463.705 100.182 468.427 94.1043 471.501C88.0263 474.575 81.2059 475.876 74.4232 475.256C67.6405 474.636 61.1692 472.119 55.7493 467.994C50.3295 463.869 46.1798 458.302 43.7749 451.93C41.3701 445.558 40.807 438.637 42.1502 431.96C35.0202 428.65 88.0202 379.06 89.8502 382.69Z" fill="black"/>
<path opacity="0.1" d="M48.9681 330.17C51.9449 330.17 54.3581 327.757 54.3581 324.78C54.3581 321.803 51.9449 319.39 48.9681 319.39C45.9913 319.39 43.5781 321.803 43.5781 324.78C43.5781 327.757 45.9913 330.17 48.9681 330.17Z" fill="#F9A826"/>
<path opacity="0.1" d="M17.5111 333.63C20.4879 333.63 22.9011 331.217 22.9011 328.24C22.9011 325.263 20.4879 322.85 17.5111 322.85C14.5343 322.85 12.1211 325.263 12.1211 328.24C12.1211 331.217 14.5343 333.63 17.5111 333.63Z" fill="#F9A826"/>
<path opacity="0.1" d="M5.39 382.02C8.36681 382.02 10.78 379.607 10.78 376.63C10.78 373.653 8.36681 371.24 5.39 371.24C2.41319 371.24 0 373.653 0 376.63C0 379.607 2.41319 382.02 5.39 382.02Z" fill="#F9A826"/>
<path opacity="0.1" d="M21.7611 406.19C24.7379 406.19 27.1511 403.777 27.1511 400.8C27.1511 397.823 24.7379 395.41 21.7611 395.41C18.7843 395.41 16.3711 397.823 16.3711 400.8C16.3711 403.777 18.7843 406.19 21.7611 406.19Z" fill="#F9A826"/>
<path opacity="0.1" d="M44.1205 456.38C47.0973 456.38 49.5105 453.967 49.5105 450.99C49.5105 448.013 47.0973 445.6 44.1205 445.6C41.1437 445.6 38.7305 448.013 38.7305 450.99C38.7305 453.967 41.1437 456.38 44.1205 456.38Z" fill="#F9A826"/>
<path opacity="0.1" d="M44.1205 456.38C47.0973 456.38 49.5105 453.967 49.5105 450.99C49.5105 448.013 47.0973 445.6 44.1205 445.6C41.1437 445.6 38.7305 448.013 38.7305 450.99C38.7305 453.967 41.1437 456.38 44.1205 456.38Z" fill="black"/>
<path opacity="0.1" d="M93.8509 399.53C96.8278 399.53 99.2409 397.117 99.2409 394.14C99.2409 391.163 96.8278 388.75 93.8509 388.75C90.8741 388.75 88.4609 391.163 88.4609 394.14C88.4609 397.117 90.8741 399.53 93.8509 399.53Z" fill="#F9A826"/>
<path opacity="0.1" d="M93.8509 399.53C96.8278 399.53 99.2409 397.117 99.2409 394.14C99.2409 391.163 96.8278 388.75 93.8509 388.75C90.8741 388.75 88.4609 391.163 88.4609 394.14C88.4609 397.117 90.8741 399.53 93.8509 399.53Z" fill="black"/>
<path opacity="0.1" d="M99.5997 482.72C103.18 480.91 104.26 475.79 102.17 471.06C102.28 471.26 102.39 471.45 102.49 471.65C104.96 476.54 103.94 482.03 100.2 483.92C96.4597 485.81 91.4397 483.38 88.9697 478.49C88.8697 478.29 88.7697 478.09 88.6797 477.88C91.2497 482.37 96.0197 484.53 99.5997 482.72Z" fill="black"/>
<path opacity="0.1" d="M104.91 493.24C108.49 491.43 109.58 486.3 107.49 481.58C107.6 481.77 107.71 481.97 107.81 482.17C110.28 487.06 109.26 492.55 105.52 494.44C101.78 496.33 96.76 493.9 94.29 489.01C94.18 488.81 94.09 488.6 94 488.4C96.57 492.91 101.35 495.05 104.91 493.24Z" fill="black"/>
<path opacity="0.1" d="M110.23 503.75C113.81 501.94 114.9 496.82 112.8 492.09C112.92 492.29 113.02 492.48 113.13 492.69C115.6 497.57 114.57 503.07 110.84 504.95C107.11 506.83 102.08 504.41 99.6103 499.52C99.5003 499.32 99.4103 499.12 99.3203 498.91C101.88 503.4 106.65 505.56 110.23 503.75Z" fill="black"/>
<path opacity="0.1" d="M115.551 514.27C119.131 512.46 120.221 507.34 118.121 502.61C118.231 502.8 118.341 503 118.441 503.2C120.921 508.09 119.891 513.58 116.161 515.47C112.431 517.36 107.391 514.93 104.921 510.04C104.821 509.84 104.731 509.63 104.641 509.43C107.201 513.91 111.971 516.08 115.551 514.27Z" fill="black"/>
<path opacity="0.1" d="M120.869 524.78C124.449 522.97 125.529 517.85 123.439 513.13C123.549 513.32 123.659 513.52 123.759 513.72C126.229 518.61 125.209 524.1 121.479 525.99C117.749 527.88 112.709 525.44 110.239 520.56C110.139 520.35 110.049 520.15 109.949 519.95C112.519 524.43 117.289 526.59 120.869 524.78Z" fill="black"/>
<path opacity="0.1" d="M126.19 535.3C129.77 533.49 130.85 528.37 128.76 523.64C128.87 523.84 128.98 524.03 129.08 524.23C131.55 529.12 130.53 534.61 126.8 536.5C123.07 538.39 118.03 535.96 115.56 531.07C115.46 530.87 115.36 530.67 115.27 530.46C117.84 534.91 122.61 537.11 126.19 535.3Z" fill="black"/>
<path opacity="0.1" d="M131.51 545.82C135.08 544.01 136.17 538.88 134.08 534.16C134.19 534.35 134.3 534.55 134.4 534.75C136.87 539.64 135.85 545.13 132.11 547.02C128.37 548.91 123.35 546.47 120.88 541.59C120.78 541.38 120.68 541.18 120.59 540.98C123.16 545.46 127.93 547.63 131.51 545.82Z" fill="black"/>
<path opacity="0.1" d="M136.82 556.33C140.4 554.52 141.49 549.4 139.39 544.67C139.51 544.87 139.61 545.06 139.72 545.27C142.19 550.15 141.16 555.65 137.43 557.53C133.7 559.41 128.67 556.99 126.2 552.1C126.09 551.9 126 551.7 125.91 551.49C128.48 555.98 133.24 558.14 136.82 556.33Z" fill="black"/>
<path opacity="0.1" d="M140.35 563.24C143.93 561.43 145.01 556.31 142.92 551.58C143.03 551.78 143.14 551.97 143.24 552.18C145.71 557.06 144.69 562.56 140.96 564.44C137.23 566.32 132.19 563.9 129.72 559.01C129.62 558.81 129.52 558.61 129.43 558.4C131.97 562.91 136.74 565.05 140.35 563.24Z" fill="black"/>
<path opacity="0.1" d="M44.2118 516.44C43.6564 514.85 43.3199 513.191 43.2118 511.51C42.842 511.509 42.4765 511.431 42.138 511.282C41.7995 511.133 41.4954 510.916 41.2446 510.645C40.9938 510.373 40.8017 510.052 40.6803 509.703C40.5589 509.354 40.5109 508.983 40.5391 508.614C40.5674 508.246 40.6713 507.887 40.8445 507.56C41.0177 507.233 41.2564 506.946 41.5457 506.716C41.835 506.485 42.1686 506.317 42.5258 506.221C42.883 506.126 43.2561 506.105 43.6218 506.16C44.2218 503.434 45.4205 500.876 47.131 498.671C48.8415 496.466 51.0211 494.669 53.5118 493.41C53.1895 492.772 53.1339 492.032 53.357 491.354C53.5802 490.675 54.0639 490.112 54.7018 489.79C55.3396 489.468 56.0793 489.412 56.7582 489.635C57.4371 489.858 57.9995 490.342 58.3218 490.98C58.4388 491.206 58.5198 491.449 58.5618 491.7C61.5208 491.157 64.5666 491.327 67.4466 492.197C70.3267 493.066 72.9578 494.61 75.1218 496.7C76.7746 496.429 78.4564 496.382 80.1218 496.56L82.3018 506.48L82.3518 496.91C84.8312 497.483 87.1689 498.552 89.224 500.053C91.2791 501.554 93.009 503.456 94.3094 505.643C95.6098 507.831 96.4538 510.259 96.7905 512.782C97.1272 515.304 96.9497 517.869 96.2686 520.321C95.5875 522.773 94.417 525.061 92.8276 527.049C91.2382 529.036 89.2628 530.681 87.0205 531.885C84.7782 533.088 82.3155 533.825 79.7807 534.051C77.2459 534.277 74.6916 533.988 72.2718 533.2C72.0086 533.665 71.616 534.044 71.1418 534.29C70.6475 534.539 70.0885 534.631 69.5405 534.552C68.9925 534.473 68.482 534.228 68.0781 533.849C67.6743 533.47 67.3967 532.977 67.2828 532.435C67.169 531.893 67.2245 531.329 67.4418 530.82C66.5843 530.221 65.7782 529.552 65.0318 528.82C61.0983 529.457 57.0641 528.833 53.5073 527.037C49.9504 525.24 47.0535 522.364 45.2318 518.82L55.3818 517.11L44.2118 516.44Z" fill="#F9A826"/>
<g opacity="0.1">
<path opacity="0.1" d="M59.8887 521.26C63.6387 516.26 65.9388 510.46 68.5788 504.84C69.636 502.527 70.8246 500.277 72.1387 498.1L74.1387 495.79C74.4787 496.08 74.8087 496.37 75.1387 496.67C76.7916 496.399 78.4733 496.352 80.1387 496.53L82.3188 506.45L82.3488 496.91C84.8282 497.483 87.1659 498.552 89.221 500.053C91.2761 501.554 93.0059 503.456 94.3064 505.643C95.6068 507.831 96.4508 510.259 96.7875 512.782C97.1242 515.304 96.9467 517.869 96.2656 520.321C95.5845 522.773 94.414 525.061 92.8246 527.049C91.2352 529.036 89.2598 530.681 87.0175 531.885C84.7752 533.088 82.3125 533.825 79.7777 534.051C77.2429 534.277 74.6886 533.988 72.2688 533.2C72.0055 533.665 71.613 534.044 71.1387 534.29C70.6445 534.539 70.0855 534.631 69.5375 534.552C68.9895 534.473 68.479 534.228 68.0751 533.849C67.6713 533.47 67.3936 532.977 67.2798 532.435C67.166 531.893 67.2215 531.329 67.4388 530.82C66.5813 530.221 65.7752 529.552 65.0287 528.82C61.1767 529.438 57.2279 528.855 53.7188 527.15C56.079 525.531 58.1625 523.543 59.8887 521.26Z" fill="black"/>
</g>
<path opacity="0.1" d="M126.259 500C126.099 499.685 126.003 499.342 125.976 498.989C125.95 498.637 125.993 498.283 126.103 497.948C126.214 497.612 126.39 497.302 126.621 497.034C126.852 496.767 127.133 496.548 127.449 496.39C127.827 496.197 128.245 496.097 128.669 496.1C129.432 492.05 131.501 488.362 134.559 485.6C134.065 483.678 133.879 481.69 134.009 479.71L143.899 478.05L134.289 477.44C134.463 476.537 134.704 475.648 135.009 474.78C134.632 474.529 134.325 474.184 134.119 473.78C133.879 473.298 133.788 472.756 133.858 472.222C133.928 471.688 134.156 471.187 134.513 470.784C134.87 470.381 135.34 470.094 135.861 469.96C136.382 469.825 136.932 469.85 137.439 470.03C139.205 467.517 141.565 465.48 144.309 464.1C147.541 462.46 151.177 461.787 154.782 462.162C158.386 462.536 161.806 463.942 164.632 466.212C167.458 468.481 169.569 471.517 170.712 474.956C171.856 478.395 171.983 482.091 171.079 485.6C171.549 485.801 171.952 486.133 172.241 486.555C172.529 486.977 172.691 487.473 172.708 487.984C172.725 488.495 172.596 489.001 172.335 489.441C172.075 489.881 171.695 490.238 171.239 490.47C170.897 490.643 170.523 490.742 170.14 490.759C169.757 490.776 169.375 490.712 169.019 490.57C168.054 492.188 166.851 493.651 165.449 494.91C166.474 498.898 166.169 503.112 164.579 506.91L151.349 503.43L163.179 509.66C161.403 512.494 158.905 514.805 155.942 516.356C152.978 517.907 149.655 518.641 146.314 518.484C142.973 518.328 139.734 517.285 136.928 515.464C134.123 513.643 131.852 511.108 130.349 508.12C129.303 506.04 128.645 503.786 128.409 501.47C127.955 501.429 127.519 501.272 127.143 501.015C126.766 500.758 126.462 500.408 126.259 500V500Z" fill="#F9A826"/>
<path opacity="0.1" d="M126.259 500C126.099 499.685 126.003 499.342 125.976 498.989C125.95 498.637 125.993 498.283 126.103 497.948C126.214 497.612 126.39 497.302 126.621 497.034C126.852 496.767 127.133 496.548 127.449 496.39C127.827 496.197 128.245 496.097 128.669 496.1C129.432 492.05 131.501 488.362 134.559 485.6C134.479 485.29 134.409 484.97 134.349 484.66C134.708 484.916 135.043 485.204 135.349 485.52C137.139 487.52 138.059 490.11 139.819 492.09C142.024 494.365 144.989 495.749 148.149 495.98C151.279 496.195 154.424 495.943 157.479 495.23C159.999 494.581 162.599 494.295 165.199 494.38L165.939 494.48L165.479 494.91C166.504 498.898 166.199 503.112 164.609 506.91L151.349 503.43L163.179 509.66C161.403 512.494 158.905 514.805 155.942 516.356C152.978 517.907 149.655 518.641 146.314 518.484C142.973 518.328 139.734 517.285 136.928 515.464C134.123 513.643 131.852 511.108 130.349 508.12C129.303 506.04 128.645 503.786 128.409 501.47C127.955 501.429 127.519 501.272 127.143 501.015C126.766 500.758 126.462 500.408 126.259 500V500Z" fill="black"/>
</g>
<path opacity="0.1" d="M346.351 51.91C342.398 51.1595 338.31 51.6052 334.611 53.19C332.393 54.1788 329.991 54.6898 327.561 54.6898C325.132 54.6898 322.73 54.1788 320.511 53.19C317.889 52.0404 315.048 51.4746 312.185 51.5315C309.322 51.5885 306.506 52.267 303.931 53.52C302.461 54.2966 300.824 54.705 299.161 54.71C292.441 54.71 286.851 47.94 285.691 39.01C287.031 38.0278 288.172 36.7992 289.051 35.39C292.991 29.04 299.051 24.96 305.941 24.96C312.831 24.96 318.831 28.96 322.771 35.27C323.948 37.165 325.593 38.7251 327.548 39.8005C329.502 40.8758 331.701 41.4301 333.931 41.41H334.111C339.411 41.38 344.041 45.67 346.351 51.91Z" fill="#F9A826"/>
<path opacity="0.1" d="M366.768 23.91L355.908 30.8L362.498 18.8C360.63 17.3109 358.318 16.4874 355.928 16.46H355.758C355.005 16.4692 354.252 16.4123 353.508 16.29L349.818 18.63L351.398 15.76C348.798 14.8551 346.546 13.1592 344.958 10.91L338.348 15.04L342.508 7.47C338.658 2.84 333.458 0 327.748 0C320.898 0 314.748 4.08 310.848 10.43C309.682 12.3267 308.034 13.8809 306.072 14.9347C304.11 15.9884 301.904 16.5044 299.678 16.43H299.348C291.788 16.43 285.648 25 285.648 35.59C285.648 46.18 291.788 54.74 299.348 54.74C301.011 54.735 302.648 54.3266 304.118 53.55C306.693 52.296 309.51 51.6177 312.373 51.5625C315.236 51.5072 318.077 52.0762 320.698 53.23C322.918 54.2157 325.32 54.725 327.748 54.725C330.177 54.725 332.579 54.2157 334.798 53.23C337.4 52.1007 340.213 51.5448 343.048 51.6C345.883 51.6553 348.673 52.3203 351.228 53.55C352.687 54.3058 354.305 54.7035 355.948 54.71C363.518 54.71 369.648 46.14 369.648 35.56C369.675 31.4973 368.685 27.4924 366.768 23.91V23.91Z" fill="#F9A826"/>
<path opacity="0.1" d="M120.351 190.45C114.705 189.382 108.868 190.015 103.581 192.27C100.409 193.676 96.9761 194.399 93.5061 194.39C90.036 194.381 86.6067 193.642 83.4414 192.22C79.696 190.578 75.6385 189.769 71.5497 189.851C67.461 189.932 63.4387 190.901 59.7614 192.69C57.6583 193.798 55.3185 194.381 52.9414 194.39C43.3414 194.39 35.3514 184.72 33.6914 171.96C35.6097 170.562 37.2396 168.807 38.4914 166.79C44.1214 157.72 52.8414 151.89 62.6314 151.89C72.4214 151.89 81.0314 157.65 86.6314 166.62C88.3144 169.339 90.6726 171.575 93.4765 173.112C96.2803 174.649 99.4343 175.434 102.631 175.39H102.881C110.461 175.38 117.081 181.51 120.351 190.45Z" fill="#F9A826"/>
<path opacity="0.1" d="M149.55 150.4L134.03 160.24L143.45 143.11C140.78 140.979 137.476 139.8 134.06 139.76H133.81C132.732 139.776 131.654 139.695 130.59 139.52L125.35 142.91L127.61 138.81C123.881 137.507 120.66 135.056 118.41 131.81L108.99 137.81L114.92 126.91C109.41 120.3 101.99 116.25 93.8298 116.25C84.0398 116.25 75.3198 122.07 69.6898 131.14C68.0223 133.862 65.6629 136.092 62.8522 137.605C60.0415 139.118 56.8799 139.858 53.6898 139.75H53.1598C42.3498 139.75 33.5898 152 33.5898 167.12C33.5898 182.24 42.3498 194.49 53.1598 194.49C55.5385 194.484 57.8796 193.897 59.9799 192.78C63.6579 190.992 67.6805 190.025 71.7692 189.946C75.858 189.866 79.9152 190.676 83.6598 192.32C86.8252 193.742 90.2545 194.481 93.7245 194.49C97.1946 194.499 100.628 193.776 103.8 192.37C107.517 190.757 111.538 189.962 115.589 190.04C119.64 190.117 123.627 191.065 127.28 192.82C129.36 193.909 131.672 194.482 134.02 194.49C144.83 194.49 153.59 182.23 153.59 167.12C153.665 161.296 152.276 155.547 149.55 150.4V150.4Z" fill="#F9A826"/>
<path opacity="0.1" d="M747.969 90.91C751.922 90.1601 756.01 90.6058 759.709 92.19C761.926 93.1792 764.326 93.6904 766.754 93.6904C769.181 93.6904 771.582 93.1792 773.799 92.19C776.421 91.0404 779.262 90.4746 782.125 90.5315C784.988 90.5885 787.804 91.267 790.379 92.52C791.85 93.2955 793.486 93.7038 795.149 93.71C801.869 93.71 807.469 86.94 808.629 78.01C807.287 77.0304 806.146 75.8013 805.269 74.39C801.349 68.02 795.219 63.91 788.349 63.91C781.479 63.91 775.469 67.91 771.529 74.22C770.354 76.1234 768.707 77.6914 766.749 78.7723C764.79 79.8532 762.586 80.4104 760.349 80.39H760.179C754.859 80.38 750.219 84.67 747.969 90.91Z" fill="#F9A826"/>
<path opacity="0.1" d="M727.49 62.91L738.35 69.78L731.75 57.78C733.62 56.2922 735.931 55.4689 738.32 55.44H738.5C739.254 55.4487 740.006 55.3918 740.75 55.27L744.43 57.61L742.85 54.74C745.469 53.8502 747.742 52.1608 749.35 49.91L755.94 54.09L751.77 46.52C755.63 41.89 760.77 39.05 766.54 39.05C773.39 39.05 779.54 43.13 783.44 49.48C784.606 51.3774 786.254 52.9321 788.216 53.986C790.178 55.0399 792.384 55.5554 794.61 55.48H794.97C802.54 55.48 808.67 64.05 808.67 74.64C808.67 85.23 802.54 93.79 794.97 93.79C793.307 93.7826 791.671 93.3744 790.2 92.6C787.625 91.346 784.809 90.6677 781.945 90.6125C779.082 90.5572 776.241 91.1262 773.62 92.28C771.402 93.2655 769.002 93.7747 766.575 93.7747C764.148 93.7747 761.748 93.2655 759.53 92.28C756.927 91.1505 754.112 90.5945 751.275 90.6497C748.439 90.705 745.647 91.3701 743.09 92.6C741.631 93.3569 740.013 93.7546 738.37 93.76C730.81 93.76 724.67 85.19 724.67 74.61C724.617 70.5355 725.586 66.5128 727.49 62.91V62.91Z" fill="#F9A826"/>
<path opacity="0.1" d="M615.629 776.88C679.142 776.88 730.629 767.926 730.629 756.88C730.629 745.834 679.142 736.88 615.629 736.88C552.116 736.88 500.629 745.834 500.629 756.88C500.629 767.926 552.116 776.88 615.629 776.88Z" fill="#F9A826"/>
<path d="M555.44 661.88L377.25 659.59L377.78 655.02L386.39 579.63H542.88L554.39 655.02L555.27 660.74L555.44 661.88Z" fill="#D0D2D5"/>
<path opacity="0.1" d="M555.27 660.74H466.35L377.25 659.59L377.78 655.02H554.39L555.27 660.74Z" fill="black"/>
<path d="M584.001 656.17H347.551V661.88H584.001V656.17Z" fill="#D0D2D5"/>
<path d="M809.588 126.83C809.601 122.89 808.05 119.105 805.275 116.308C802.5 113.51 798.728 111.929 794.788 111.91H134.468C132.515 111.919 130.584 112.313 128.783 113.069C126.982 113.824 125.348 114.927 123.974 116.315C122.6 117.702 121.512 119.347 120.773 121.154C120.034 122.962 119.659 124.897 119.668 126.85V527.1H809.588V126.83Z" fill="#3F3D56"/>
<path d="M119.672 523.1V569.98C119.672 573.905 121.231 577.67 124.007 580.445C126.782 583.221 130.547 584.78 134.472 584.78H794.792C798.717 584.78 802.481 583.221 805.257 580.445C808.033 577.67 809.592 573.905 809.592 569.98V523.1H119.672Z" fill="#D0D2D5"/>
<path d="M784.461 137.01H148.23V496.82H784.461V137.01Z" fill="white"/>
<path d="M468.059 566.99C470.395 566.993 472.701 566.464 474.803 565.443C476.904 564.423 478.746 562.937 480.189 561.1C480.627 560.541 481.028 559.953 481.389 559.34L472.919 557.91L482.069 557.97C482.946 556.062 483.424 553.994 483.474 551.895C483.524 549.795 483.144 547.708 482.359 545.76L470.089 552.12L481.409 543.8C480.346 541.973 478.918 540.383 477.215 539.131C475.512 537.879 473.569 536.99 471.508 536.52C469.447 536.05 467.311 536.009 465.233 536.399C463.155 536.79 461.18 537.603 459.43 538.789C457.68 539.975 456.192 541.508 455.06 543.293C453.927 545.079 453.174 547.078 452.846 549.166C452.519 551.255 452.624 553.388 453.156 555.434C453.688 557.481 454.635 559.395 455.939 561.06V561.06C457.376 562.904 459.215 564.396 461.315 565.423C463.415 566.45 465.721 566.986 468.059 566.99V566.99Z" fill="#F9A826"/>
<path opacity="0.1" d="M483.48 584.77L554.57 656.17L543.66 584.77H483.48Z" fill="black"/>
<path opacity="0.1" d="M784.651 137.05H147.73V158.07H784.651V137.05Z" fill="#444053"/>
<path opacity="0.3" d="M560.191 140.71H369.451C369.131 140.71 368.871 140.97 368.871 141.29V152.92C368.871 153.24 369.131 153.5 369.451 153.5H560.191C560.511 153.5 560.771 153.24 560.771 152.92V141.29C560.771 140.97 560.511 140.71 560.191 140.71Z" fill="#F9A826"/>
<path d="M555.069 148.43H554.599L554.429 148.28C555.011 147.581 555.33 146.7 555.329 145.79C555.323 145.043 555.097 144.315 554.677 143.697C554.258 143.079 553.665 142.599 552.973 142.318C552.281 142.037 551.522 141.967 550.79 142.117C550.059 142.267 549.388 142.63 548.863 143.161C548.337 143.692 547.981 144.367 547.839 145.1C547.697 145.833 547.774 146.592 548.063 147.28C548.351 147.969 548.838 148.557 549.46 148.97C550.082 149.383 550.813 149.602 551.559 149.6C552.47 149.597 553.351 149.275 554.049 148.69L554.219 148.84V149.31L557.149 152.24L558.019 151.36L555.069 148.43ZM551.559 148.43C551.037 148.432 550.525 148.279 550.09 147.99C549.655 147.701 549.315 147.289 549.113 146.807C548.912 146.325 548.858 145.794 548.959 145.281C549.06 144.768 549.31 144.297 549.679 143.927C550.048 143.557 550.518 143.304 551.031 143.201C551.543 143.099 552.074 143.15 552.557 143.35C553.04 143.55 553.453 143.888 553.744 144.322C554.034 144.757 554.189 145.267 554.189 145.79C554.192 146.137 554.126 146.48 553.995 146.801C553.864 147.122 553.67 147.414 553.426 147.659C553.181 147.905 552.89 148.099 552.57 148.232C552.249 148.364 551.906 148.431 551.559 148.43V148.43Z" fill="#3F3D56"/>
<path opacity="0.8" d="M159.178 151.41C161.304 151.41 163.028 149.686 163.028 147.56C163.028 145.434 161.304 143.71 159.178 143.71C157.052 143.71 155.328 145.434 155.328 147.56C155.328 149.686 157.052 151.41 159.178 151.41Z" fill="#FA5959"/>
<path opacity="0.8" d="M169.772 151.41C171.898 151.41 173.622 149.686 173.622 147.56C173.622 145.434 171.898 143.71 169.772 143.71C167.646 143.71 165.922 145.434 165.922 147.56C165.922 149.686 167.646 151.41 169.772 151.41Z" fill="#FED253"/>
<path opacity="0.8" d="M180.37 151.41C182.496 151.41 184.22 149.686 184.22 147.56C184.22 145.434 182.496 143.71 180.37 143.71C178.243 143.71 176.52 145.434 176.52 147.56C176.52 149.686 178.243 151.41 180.37 151.41Z" fill="#8CCF4D"/>
<path d="M500.049 291.4C491.319 279.8 478.669 272.48 464.589 272.48C450.509 272.48 437.859 279.8 429.129 291.4C431.059 296.134 433.915 300.435 437.529 304.05C441.995 308.514 447.497 311.804 453.543 313.627C459.589 315.449 465.993 315.748 472.182 314.495C478.372 313.243 484.155 310.479 489.017 306.449C493.88 302.419 497.669 297.249 500.049 291.4V291.4Z" fill="#F9A826"/>
<path d="M422.759 297.19C423.307 297.587 423.897 297.923 424.519 298.19C431.219 311.74 445.099 322.11 461.029 322.98V387.23C448.979 386.51 439.329 380.44 431.219 370.97C430.519 371.5 429.999 371.98 429.519 372.43C428.846 373.068 428.375 373.89 428.167 374.793C427.959 375.697 428.022 376.642 428.349 377.51C428.789 378.705 428.903 379.996 428.68 381.25C428.457 382.504 427.904 383.675 427.078 384.645C426.252 385.615 425.184 386.348 423.981 386.768C422.779 387.188 421.487 387.282 420.237 387.038C418.987 386.794 417.824 386.222 416.868 385.381C415.912 384.539 415.197 383.459 414.796 382.25C414.395 381.041 414.323 379.747 414.587 378.501C414.851 377.255 415.442 376.102 416.299 375.16C416.557 374.877 416.838 374.616 417.139 374.38C417.312 374.221 417.504 374.084 417.709 373.97C418.809 369.99 421.419 366.4 425.659 363.11C420.887 354.955 417.968 345.85 417.109 336.44C416.491 336.446 415.873 336.486 415.259 336.56C414.425 336.672 413.638 337.011 412.984 337.54C412.329 338.069 411.833 338.768 411.549 339.56C411.087 340.788 410.298 341.867 409.268 342.679C408.237 343.49 407.003 344.005 405.701 344.166C404.399 344.327 403.077 344.128 401.88 343.592C400.682 343.056 399.654 342.202 398.908 341.123C398.161 340.044 397.723 338.782 397.642 337.472C397.562 336.162 397.841 334.855 398.45 333.693C399.059 332.531 399.974 331.557 401.097 330.878C402.22 330.199 403.507 329.84 404.819 329.84C405.11 329.845 405.4 329.865 405.689 329.9C406.763 329.127 407.955 328.533 409.219 328.14C411.687 327.368 414.253 326.954 416.839 326.91C417.094 320.239 418.355 313.645 420.579 307.35C418.963 306.432 417.44 305.36 416.029 304.15C414.654 302.922 413.527 301.442 412.709 299.79C412.276 298.955 411.613 298.261 410.799 297.79C410.172 297.413 409.6 296.952 409.099 296.42C408.21 295.462 407.6 294.279 407.334 292.999C407.068 291.719 407.156 290.391 407.589 289.158C408.022 287.925 408.784 286.833 409.792 286.001C410.8 285.168 412.016 284.627 413.309 284.435C414.602 284.243 415.923 284.408 417.129 284.911C418.335 285.415 419.381 286.238 420.154 287.292C420.927 288.347 421.397 289.592 421.514 290.894C421.632 292.196 421.391 293.505 420.819 294.68C421.267 295.653 421.93 296.511 422.759 297.19Z" fill="#F9A826"/>
<path d="M680.998 745.22C680.418 744.299 679.684 743.484 678.828 742.81C674.458 738.68 672.428 732.62 671.348 726.68C670.268 720.74 669.958 714.68 668.228 708.87C667.287 705.891 666.11 702.992 664.708 700.2C663.708 698.06 662.448 693.87 660.618 692.37C660.259 692.059 659.825 691.849 659.358 691.76C658.494 689.923 657.262 688.282 655.738 686.94C652.878 684.35 649.388 682.29 647.478 678.94C646.953 677.778 646.306 676.675 645.548 675.65C644.258 674.23 642.218 673.65 641.028 672.15C639.478 670.21 639.828 667.43 640.028 664.96C640.228 662.49 640.028 659.53 637.888 658.23C636.608 657.44 634.958 657.52 633.628 656.82C631.628 655.82 630.838 653.3 630.878 651.05C630.918 648.8 631.618 646.61 631.798 644.36C632.358 637.2 627.638 630.08 629.458 623.14C630.148 620.51 631.728 618.23 632.898 615.78C633.306 614.965 633.641 614.115 633.898 613.24C637.018 614.477 640.297 615.268 643.638 615.59C638.128 603.23 639.528 588.87 636.958 575.59L637.288 575.14C639.884 571.716 641.358 567.574 641.508 563.28C641.508 558.34 639.198 553.72 638.158 548.88C637.268 544.77 637.308 540.47 636.158 536.43C635.36 533.919 634.301 531.499 632.998 529.21C631.752 526.897 630.442 524.62 629.068 522.38C627.788 518.14 626.505 513.9 625.218 509.66C623.418 503.71 621.568 497.66 618.068 492.52C616.788 490.64 616.398 486.82 614.428 485.68C612.829 484.852 611.014 484.535 609.228 484.77C606.448 483.21 604.008 480.96 603.658 477.88C603.624 477.207 603.691 476.533 603.858 475.88H604.198C608.598 475.48 610.828 471.6 613.118 468.2C616.818 462.7 615.408 455.26 613.118 449C612.551 447.024 611.523 445.211 610.118 443.71C606.908 440.71 601.828 441.37 597.688 439.92C596.298 439.44 594.998 438.71 593.578 438.37C590.828 437.73 587.948 438.63 585.428 439.9C582.908 441.17 580.558 442.81 577.918 443.81C575.278 444.81 572.018 445.6 571.368 448.31C571.186 449.223 571.262 450.168 571.588 451.04C572.196 452.779 573.264 454.32 574.678 455.5C573.554 457.818 572.946 460.351 572.896 462.927C572.846 465.502 573.356 468.058 574.389 470.417C575.422 472.776 576.955 474.884 578.882 476.593C580.808 478.303 583.083 479.574 585.548 480.32C586.308 481.54 587.018 482.78 587.668 484.05C588.828 486.29 589.808 488.93 589.408 491.33C588.685 492.099 588.017 492.917 587.408 493.78C584.538 497.78 582.908 502.47 581.408 507.15C579.393 513.126 577.78 519.229 576.578 525.42C574.138 530.61 571.158 535.57 569.388 541.02C566.219 541.024 563.064 540.6 560.008 539.76L551.568 537.85C548.628 537.18 545.568 536.46 543.268 534.52C542.048 533.52 541.098 532.19 539.858 531.2C538.618 530.21 536.128 529.05 534.768 529.87C534.52 530.021 534.288 530.199 534.078 530.4C532.838 527.89 531.658 525.4 530.218 522.97C528.148 519.57 525.068 516.46 521.168 515.81C518.785 515.427 516.347 515.994 514.378 517.39C512.098 519.01 510.668 522.39 512.378 524.67C512.806 525.177 513.27 525.652 513.768 526.09C514.926 527.424 515.96 528.859 516.858 530.38C520.082 534.905 524.904 538.036 530.348 539.14L529.998 540.14C529.288 542.22 527.778 544.73 528.158 546.89L565.698 559.74C568.107 560.717 570.662 561.282 573.258 561.41C574.271 561.402 575.279 561.267 576.258 561.01V562.93V563.01C576.358 576.2 574.258 589.3 573.868 602.48C573.798 604.89 573.868 607.48 575.388 609.36C577.088 611.42 580.108 611.83 582.738 611.36C583.372 611.253 583.992 611.113 584.598 610.94C585.488 614.258 586.13 617.637 586.518 621.05L588.998 638.91C589.317 640.738 589.448 642.595 589.388 644.45C589.098 648.64 586.888 652.39 585.288 656.26C583.688 660.13 582.738 664.76 584.838 668.38C585.498 669.5 586.408 670.45 586.998 671.61C587.748 673.406 588.09 675.346 587.998 677.29C588.152 682.677 588.298 688.07 588.438 693.47C588.002 693.398 587.554 693.487 587.178 693.72C585.098 695.34 585.328 703.05 585.178 705.44C585.018 709.44 585.178 713.52 584.958 717.56C584.698 723.005 583.823 728.402 582.348 733.65C581.988 735.356 581.2 736.942 580.058 738.26C578.889 739.277 577.494 740.001 575.988 740.37C571.006 741.93 565.796 742.64 560.578 742.47C558.468 742.4 556.268 742.2 554.308 743C552.348 743.8 550.768 746 551.478 748C552.088 749.68 553.938 750.48 555.608 751.11C559.423 752.454 563.106 754.147 566.608 756.17C567.956 757.089 569.378 757.895 570.858 758.58C572.277 759.09 573.745 759.452 575.238 759.66L592.968 762.72C596.598 763.34 600.968 763.72 603.278 760.72C604.528 759.1 604.708 756.9 604.648 754.84C604.548 750.84 603.748 746.77 604.268 742.77C604.663 740.405 605.286 738.085 606.128 735.84C607.895 730.593 609.668 725.35 611.448 720.11C613.228 714.85 615.028 709.54 615.718 704.02C615.968 702.02 615.948 699.74 614.418 698.49C614.031 698.173 613.581 697.941 613.098 697.81C613.038 692.99 612.408 688.16 612.678 683.34C612.748 682.14 612.868 680.94 612.968 679.73C613.895 680.611 614.723 681.59 615.438 682.65C617.148 685.33 617.778 688.87 620.388 690.65C622.608 692.17 625.898 692.09 627.458 694.29C627.959 695.135 628.337 696.048 628.578 697C629.484 699.358 630.843 701.515 632.578 703.35C633.174 705.545 634.002 707.67 635.048 709.69C636.522 712.803 637.988 715.907 639.448 719C640.949 722.339 642.618 725.6 644.448 728.77C645.846 730.766 646.972 732.938 647.798 735.23C649.208 740.17 646.908 745.59 643.268 749.23C639.628 752.87 634.828 754.96 630.098 756.91C629.6 757.079 629.143 757.351 628.758 757.71C628.348 758.196 628.131 758.815 628.148 759.45C628.148 761.76 630.048 763.74 632.228 764.45C634.457 765.049 636.792 765.134 639.058 764.7C651.838 763.15 664.578 760.03 675.878 753.82C677.569 753.019 679.066 751.863 680.268 750.43C680.849 749.708 681.224 748.843 681.352 747.926C681.481 747.008 681.358 746.073 680.998 745.22V745.22Z" fill="url(#paint0_linear_816_1938)"/>
<path d="M626.992 520.97C629.125 524.243 631.125 527.597 632.992 531.03C634.299 533.301 635.362 535.704 636.162 538.2C637.322 542.2 637.292 546.47 638.162 550.55C639.162 555.35 641.502 559.93 641.502 564.85C641.349 569.113 639.874 573.223 637.282 576.61C634.697 579.968 631.738 583.021 628.462 585.71C620.911 566.147 616.692 545.457 615.982 524.5C615.882 521.6 615.862 518.61 616.922 515.9C617.572 514.2 620.692 509.54 622.702 511.37C623.432 512.04 623.622 515.06 624.072 516.07C624.915 517.778 625.891 519.416 626.992 520.97V520.97Z" fill="#2F2E41"/>
<path opacity="0.1" d="M626.992 520.97C629.125 524.243 631.125 527.597 632.992 531.03C634.299 533.301 635.362 535.704 636.162 538.2C637.322 542.2 637.292 546.47 638.162 550.55C639.162 555.35 641.502 559.93 641.502 564.85C641.349 569.113 639.874 573.223 637.282 576.61C634.697 579.968 631.738 583.021 628.462 585.71C620.911 566.147 616.692 545.457 615.982 524.5C615.882 521.6 615.862 518.61 616.922 515.9C617.572 514.2 620.692 509.54 622.702 511.37C623.432 512.04 623.622 515.06 624.072 516.07C624.915 517.778 625.891 519.416 626.992 520.97V520.97Z" fill="black"/>
<path d="M363.348 384.54C355.438 392.44 354.488 395.92 349.738 397.49C344.988 399.06 327.898 407.91 333.268 417.72L347.708 427.26L348.128 427.54L350.338 434.18L328.498 473.06C328.498 473.06 292.498 456.6 288.968 480.95C285.438 505.3 287.678 511.95 286.728 524.95C285.778 537.95 287.038 541.71 283.868 541.71C280.698 541.71 279.448 533.17 279.448 533.17C279.448 533.17 279.248 532.78 278.898 532.05C274.188 522.26 242.218 450.39 293.428 400.99C293.428 400.99 317.148 399.43 322.858 372.23C326.798 353.43 340.578 355.05 349.738 358.88C352.716 360.047 355.49 361.677 357.958 363.71C360.18 365.813 362.156 368.162 363.848 370.71C366.458 374.83 367.878 380 363.348 384.54Z" fill="#D0D2D5"/>
<path opacity="0.1" d="M348.131 427.54L350.341 434.18L328.501 473.06C328.501 473.06 292.501 456.6 288.971 480.95C285.441 505.3 287.681 511.95 286.731 524.95C285.781 537.95 287.041 541.71 283.871 541.71C280.701 541.71 279.451 533.17 279.451 533.17C279.451 533.17 279.251 532.78 278.901 532.05C277.311 519.89 269.251 448.76 298.471 452.54C298.471 452.54 322.181 463.62 325.971 459.2C328.971 455.7 342.291 435.57 347.711 427.31L348.131 427.54Z" fill="black"/>
<path opacity="0.1" d="M363.85 370.65L349.41 387.06C349.41 387.06 332.64 409.5 329.16 408.55C328.118 408.323 327.057 408.199 325.99 408.18C324.829 408.091 323.718 407.675 322.783 406.98C321.849 406.285 321.131 405.339 320.713 404.253C320.294 403.167 320.192 401.984 320.418 400.842C320.644 399.7 321.189 398.645 321.99 397.8C327.71 391.8 338.25 380.41 338.94 377.88C339.63 375.35 346.34 364.26 349.7 358.83C352.677 359.997 355.452 361.627 357.92 363.66C360.155 365.758 362.145 368.103 363.85 370.65V370.65Z" fill="black"/>
<path d="M772.411 606.74C769.961 611.64 757.411 630.02 751.921 638.05L749.351 641.83C749.351 641.83 748.351 648.47 731.961 640.24C715.571 632.01 330.481 469.52 330.481 469.52L327.871 461.68L346.871 433.23L768.941 596.3C768.941 596.3 775.581 600.41 772.411 606.74Z" fill="#454B69"/>
<path opacity="0.1" d="M751.921 638.05L749.351 641.83C749.351 641.83 748.351 648.47 731.961 640.24C715.571 632.01 330.481 469.52 330.481 469.52L327.871 461.68L751.921 638.05Z" fill="black"/>
<path d="M519.639 531.91C515.729 531.27 511.389 531.58 508.349 534.12C506.512 535.676 505.35 537.884 505.109 540.28C504.849 543.05 506.459 546.34 509.239 546.55C509.908 546.558 510.577 546.514 511.239 546.42C512.996 546.412 514.749 546.56 516.479 546.86C519.885 547.18 523.318 546.679 526.49 545.398C529.662 544.118 532.481 542.095 534.709 539.5C537.099 536.5 533.949 535.2 531.129 534.6C527.269 533.78 523.499 532.53 519.639 531.91Z" fill="#FBBEBE"/>
<path d="M586.52 622.22L589 639.84C589.316 641.659 589.443 643.505 589.38 645.35C589.09 649.5 586.88 653.22 585.29 657.06C583.7 660.9 582.73 665.5 584.84 669.06C585.49 670.17 586.4 671.12 586.99 672.27C587.74 674.048 588.082 675.972 587.99 677.9L588.67 702.9C596.39 703.427 604.137 703.383 611.85 702.77C612.152 702.784 612.449 702.692 612.69 702.51C612.894 702.252 612.997 701.928 612.98 701.6C613.32 695.75 612.3 689.89 612.63 684.04C612.75 681.9 613.05 679.77 613.09 677.62C613.21 668.91 608.91 660.38 610.21 651.77C610.618 649.597 611.153 647.45 611.81 645.34C615.92 630.34 615.05 614.58 614.14 599.09C614.156 598.841 614.085 598.593 613.94 598.39C613.793 598.242 613.605 598.141 613.4 598.1C609.025 596.787 604.399 596.547 599.912 597.4C595.424 598.253 591.208 600.174 587.62 603C586.53 603.88 583.78 604.73 583.06 605.78C582.06 607.24 583.37 608.7 583.95 610.25C585.235 614.136 586.097 618.149 586.52 622.22V622.22Z" fill="#3F3D56"/>
<path opacity="0.1" d="M586.52 622.22L589 639.84C589.316 641.659 589.443 643.505 589.38 645.35C589.09 649.5 586.88 653.22 585.29 657.06C583.7 660.9 582.73 665.5 584.84 669.06C585.49 670.17 586.4 671.12 586.99 672.27C587.74 674.048 588.082 675.972 587.99 677.9L588.67 702.9C596.39 703.427 604.137 703.383 611.85 702.77C612.152 702.784 612.449 702.692 612.69 702.51C612.894 702.252 612.997 701.928 612.98 701.6C613.32 695.75 612.3 689.89 612.63 684.04C612.75 681.9 613.05 679.77 613.09 677.62C613.21 668.91 608.91 660.38 610.21 651.77C610.618 649.597 611.153 647.45 611.81 645.34C615.92 630.34 615.05 614.58 614.14 599.09C614.156 598.841 614.085 598.593 613.94 598.39C613.793 598.242 613.605 598.141 613.4 598.1C609.025 596.787 604.399 596.547 599.912 597.4C595.424 598.253 591.208 600.174 587.62 603C586.53 603.88 583.78 604.73 583.06 605.78C582.06 607.24 583.37 608.7 583.95 610.25C585.235 614.136 586.097 618.149 586.52 622.22V622.22Z" fill="black"/>
<path d="M632.892 616.91C631.722 619.34 630.152 621.6 629.452 624.21C627.632 631.1 632.342 638.21 631.782 645.27C631.602 647.5 630.912 649.67 630.862 651.9C630.812 654.13 631.632 656.61 633.612 657.64C634.942 658.32 636.612 658.25 637.862 659.03C639.972 660.32 640.212 663.25 640.002 665.71C639.792 668.17 639.442 670.92 641.002 672.84C642.192 674.33 644.232 674.91 645.512 676.32C646.273 677.332 646.921 678.425 647.442 679.58C649.352 682.92 652.842 684.96 655.702 687.58C658.562 690.2 660.982 694.04 659.702 697.67C658.762 700.33 656.122 701.97 653.582 703.22C648.947 705.511 644.056 707.239 639.012 708.37C638.47 708.534 637.898 708.565 637.342 708.46C636.779 708.254 636.277 707.911 635.882 707.46C632.932 704.57 629.882 701.54 628.522 697.65C628.28 696.707 627.903 695.804 627.402 694.97C625.842 692.78 622.552 692.86 620.332 691.35C617.732 689.58 617.102 686.07 615.402 683.42C613.702 680.77 611.212 679.19 609.402 676.86C606.342 672.98 605.592 667.8 603.402 663.37C602.472 661.49 601.282 659.73 600.542 657.77C599.795 655.421 599.335 652.99 599.172 650.53C597.762 638.85 594.172 627.09 596.432 615.53C596.932 612.99 597.702 610.53 598.022 607.91C598.572 603.38 597.702 598.74 598.372 594.22C598.388 593.653 598.532 593.096 598.794 592.592C599.055 592.088 599.427 591.65 599.882 591.31C600.422 591.067 601.01 590.948 601.602 590.96C607.53 590.643 613.474 590.777 619.382 591.36C622.382 591.65 625.742 592.26 627.542 594.71C629.072 596.81 628.992 599.62 629.482 602.17C630.092 605.31 631.682 607.02 633.352 609.48C635.022 611.94 634.122 614.37 632.892 616.91Z" fill="#3F3D56"/>
<path d="M609.82 698.17C611.4 698.17 613.15 698.07 614.37 699.07C615.89 700.32 615.91 702.61 615.67 704.56C614.97 710.04 613.18 715.31 611.39 720.56L606.07 736.17C605.228 738.397 604.605 740.702 604.21 743.05C603.69 747.05 604.49 751.05 604.59 755.05C604.59 757.05 604.46 759.27 603.21 760.88C600.95 763.79 596.54 763.45 592.91 762.88L575.2 759.88C573.706 759.681 572.238 759.322 570.82 758.81C569.342 758.128 567.921 757.328 566.57 756.42C563.066 754.418 559.383 752.744 555.57 751.42C553.91 750.8 552.05 750.01 551.45 748.34C550.74 746.34 552.32 744.14 554.28 743.34C556.24 742.54 558.43 742.74 560.55 742.8C565.764 742.966 570.968 742.263 575.95 740.72C577.451 740.352 578.843 739.632 580.01 738.62C581.197 737.287 582.005 735.661 582.35 733.91C583.859 728.698 584.759 723.329 585.03 717.91C585.24 713.91 585.1 709.91 585.26 705.91C585.36 703.54 585.13 695.91 587.21 694.28C588.8 693.06 595.34 696.43 597.49 696.92C601.533 697.846 605.674 698.266 609.82 698.17V698.17Z" fill="#2F2E41"/>
<path d="M668.16 709.29C669.89 715.02 670.16 721.08 671.28 726.97C672.4 732.86 674.38 738.87 678.75 742.97C679.6 743.645 680.333 744.456 680.92 745.37C681.289 746.226 681.414 747.168 681.281 748.091C681.149 749.014 680.764 749.882 680.17 750.6C678.962 752.022 677.466 753.171 675.78 753.97C664.49 760.13 651.78 763.24 638.97 764.78C636.706 765.204 634.376 765.119 632.15 764.53C629.97 763.79 628.04 761.83 628.08 759.53C628.058 758.899 628.272 758.282 628.68 757.8C629.069 757.444 629.529 757.175 630.03 757.01C634.75 755.07 639.54 752.96 643.19 749.38C646.84 745.8 649.13 740.38 647.72 735.52C646.885 733.244 645.751 731.088 644.35 729.11C642.521 725.966 640.853 722.732 639.35 719.42L634.95 710.19C633.66 707.49 632.36 704.71 632.14 701.73C637.667 701.978 643.187 701.093 648.36 699.13C650.774 698.145 653.024 696.796 655.03 695.13C656.73 693.71 658.28 691.06 660.57 692.91C662.41 694.39 663.57 698.56 664.65 700.67C666.053 703.443 667.226 706.326 668.16 709.29Z" fill="#2F2E41"/>
<path d="M603.679 480.1C604.119 483.94 607.839 486.47 611.389 487.99L588.919 495.16C590.369 492.38 589.199 488.98 587.759 486.16C586.586 483.927 585.249 481.785 583.759 479.75C583.539 479.44 583.289 479.05 583.449 478.69C583.592 478.455 583.816 478.28 584.079 478.2C588.699 476.14 593.459 474.01 598.509 473.26C599.969 473.05 602.729 472.47 603.819 473.95C604.909 475.43 603.469 478.33 603.679 480.1Z" fill="#FBBEBE"/>
<path opacity="0.1" d="M603.679 480.1C604.119 483.94 607.839 486.47 611.389 487.99L588.919 495.16C590.369 492.38 589.199 488.98 587.759 486.16C586.586 483.927 585.249 481.785 583.759 479.75C583.539 479.44 583.289 479.05 583.449 478.69C583.592 478.455 583.816 478.28 584.079 478.2C588.699 476.14 593.459 474.01 598.509 473.26C599.969 473.05 602.729 472.47 603.819 473.95C604.909 475.43 603.469 478.33 603.679 480.1Z" fill="black"/>
<path d="M590.62 483.21C600.351 483.21 608.24 475.321 608.24 465.59C608.24 455.859 600.351 447.97 590.62 447.97C580.889 447.97 573 455.859 573 465.59C573 475.321 580.889 483.21 590.62 483.21Z" fill="#FBBEBE"/>
<path d="M575.352 610.59C577.062 612.64 580.072 613.04 582.702 612.59C588.852 611.59 593.882 607.06 599.902 605.43C607.282 603.43 615.092 606 622.062 609.15C629.032 612.3 635.962 616.15 643.582 616.69C636.692 601.33 640.632 582.85 634.042 567.36C632.432 563.57 630.182 559.92 629.822 555.82C629.372 550.73 631.912 545.82 632.302 540.76C632.662 536.25 631.302 531.76 630.002 527.46C628.395 522.18 626.788 516.9 625.182 511.62C623.382 505.71 621.532 499.7 618.042 494.62C616.752 492.75 616.362 488.96 614.402 487.83C610.122 485.36 603.632 488.47 598.992 488.64C594.352 488.81 590.122 492.11 587.412 495.84C584.542 499.78 582.912 504.47 581.412 509.11C579.023 516.019 577.24 523.122 576.082 530.34C575.932 531.42 575.802 532.5 575.702 533.59C574.702 543.86 576.162 554.19 576.242 564.51V564.58C576.342 577.67 574.242 590.68 573.852 603.76C573.812 606.15 573.872 608.76 575.352 610.59Z" fill="#2F2E41"/>
<path opacity="0.1" d="M576.271 564.52C579.721 563.65 582.841 561.42 585.521 558.98C587.843 556.902 589.904 554.552 591.661 551.98C593.874 548.522 595.65 544.804 596.951 540.91C600.654 530.497 603.006 519.651 603.951 508.64C604.211 505.64 604.291 502.42 602.501 500.04C601.496 498.751 600.085 497.839 598.496 497.455C596.907 497.07 595.235 497.234 593.751 497.92C591.391 499.07 589.861 501.4 588.441 503.63C585.631 508.05 582.801 512.53 580.991 517.45C580.191 519.63 579.601 521.87 578.821 524.06C578.028 526.22 577.113 528.333 576.081 530.39C575.931 531.47 575.801 532.55 575.701 533.64C574.771 543.91 576.191 554.2 576.271 564.52Z" fill="black"/>
<path d="M602.451 498.11C604.241 500.49 604.161 503.74 603.911 506.7C602.967 517.712 600.615 528.557 596.911 538.97C595.621 542.897 593.844 546.646 591.621 550.13C589.86 552.7 587.799 555.05 585.481 557.13C582.081 560.23 577.941 563 573.331 563.04C570.736 562.918 568.18 562.36 565.771 561.39L528.221 548.61C527.841 546.47 529.351 543.97 530.061 541.91L532.061 535.98C532.631 534.34 533.291 532.57 534.781 531.68C536.271 530.79 538.631 532.01 539.871 533C541.111 533.99 542.051 535.29 543.271 536.3C545.581 538.22 548.631 538.94 551.571 539.6L560.001 541.49C563.057 542.327 566.212 542.747 569.381 542.74C571.731 535.56 576.201 529.24 578.731 522.12C579.511 519.94 580.101 517.69 580.911 515.51C582.711 510.59 585.551 506.12 588.361 501.69C589.771 499.47 591.301 497.14 593.671 495.98C595.158 495.285 596.838 495.118 598.434 495.505C600.03 495.892 601.446 496.811 602.451 498.11V498.11Z" fill="#2F2E41"/>
<path d="M596.239 469.57C596.105 468.411 595.745 467.29 595.179 466.27C594.884 465.759 594.434 465.356 593.895 465.119C593.355 464.881 592.754 464.822 592.179 464.95C590.419 465.5 589.829 468.22 587.989 468.31C586.749 468.37 585.859 467.11 585.469 465.93C585.079 464.75 584.869 463.4 583.939 462.57C583.291 462.086 582.548 461.745 581.759 461.57C577.489 460.22 573.079 457.73 571.659 453.48C571.325 452.617 571.245 451.677 571.429 450.77C572.079 448.08 575.429 447.27 577.979 446.3C580.529 445.33 582.979 443.67 585.479 442.41C587.979 441.15 590.879 440.26 593.629 440.9C595.024 441.339 596.396 441.85 597.739 442.43C601.879 443.87 606.949 443.2 610.159 446.19C611.561 447.673 612.59 449.47 613.159 451.43C615.399 457.65 616.819 465.03 613.109 470.49C610.819 473.86 608.599 477.71 604.199 478.12C599.079 478.55 597.049 473.91 596.239 469.57Z" fill="#2F2E41"/>
<g opacity="0.1">
<path opacity="0.1" d="M588.422 463.81C588.032 462.63 587.822 461.28 586.902 460.45C586.254 459.966 585.511 459.625 584.722 459.45C580.442 458.1 576.042 455.61 574.612 451.36C574.286 450.495 574.209 449.556 574.392 448.65C574.49 448.223 574.67 447.819 574.922 447.46C573.292 448.17 571.872 449.11 571.472 450.77C571.288 451.677 571.367 452.617 571.702 453.48C573.122 457.73 577.532 460.22 581.802 461.57C582.591 461.745 583.334 462.086 583.982 462.57C584.912 463.4 585.112 464.74 585.512 465.93C585.912 467.12 586.792 468.37 588.032 468.31C589.272 468.25 589.872 467.12 590.662 466.17C589.572 466.03 588.782 464.91 588.422 463.81Z" fill="black"/>
<path opacity="0.1" d="M607.14 475.97C602 476.44 599.97 471.76 599.14 467.45C599.03 466.294 598.69 465.172 598.14 464.15C597.844 463.64 597.394 463.238 596.855 463.001C596.316 462.764 595.715 462.704 595.14 462.83C594.227 463.272 593.461 463.966 592.93 464.83C593.389 464.874 593.831 465.023 594.223 465.266C594.615 465.509 594.946 465.839 595.19 466.23C595.756 467.25 596.116 468.371 596.25 469.53C597.06 473.84 599.09 478.53 604.25 478.05C606.289 477.825 608.172 476.848 609.53 475.31C608.775 475.662 607.968 475.885 607.14 475.97V475.97Z" fill="black"/>
</g>
<path d="M813.11 661.99C830.944 661.99 845.4 659.21 845.4 655.78C845.4 652.35 830.944 649.57 813.11 649.57C795.277 649.57 780.82 652.35 780.82 655.78C780.82 659.21 795.277 661.99 813.11 661.99Z" fill="#F9A826"/>
<path d="M812.569 658.06C814.645 658.06 816.329 655.857 816.329 653.14C816.329 650.423 814.645 648.22 812.569 648.22C810.492 648.22 808.809 650.423 808.809 653.14C808.809 655.857 810.492 658.06 812.569 658.06Z" fill="#3F3D56"/>
<path d="M812.569 652.04C814.645 652.04 816.329 649.837 816.329 647.12C816.329 644.403 814.645 642.2 812.569 642.2C810.492 642.2 808.809 644.403 808.809 647.12C808.809 649.837 810.492 652.04 812.569 652.04Z" fill="#3F3D56"/>
<path d="M812.569 646.03C814.645 646.03 816.329 643.827 816.329 641.11C816.329 638.393 814.645 636.19 812.569 636.19C810.492 636.19 808.809 638.393 808.809 641.11C808.809 643.827 810.492 646.03 812.569 646.03Z" fill="#3F3D56"/>
<path d="M812.569 640.01C814.645 640.01 816.329 637.807 816.329 635.09C816.329 632.373 814.645 630.17 812.569 630.17C810.492 630.17 808.809 632.373 808.809 635.09C808.809 637.807 810.492 640.01 812.569 640.01Z" fill="#3F3D56"/>
<path d="M812.569 633.99C814.645 633.99 816.329 631.787 816.329 629.07C816.329 626.353 814.645 624.15 812.569 624.15C810.492 624.15 808.809 626.353 808.809 629.07C808.809 631.787 810.492 633.99 812.569 633.99Z" fill="#3F3D56"/>
<path d="M812.569 627.98C814.645 627.98 816.329 625.777 816.329 623.06C816.329 620.343 814.645 618.14 812.569 618.14C810.492 618.14 808.809 620.343 808.809 623.06C808.809 625.777 810.492 627.98 812.569 627.98Z" fill="#3F3D56"/>
<path d="M812.569 621.96C814.645 621.96 816.329 619.757 816.329 617.04C816.329 614.323 814.645 612.12 812.569 612.12C810.492 612.12 808.809 614.323 808.809 617.04C808.809 619.757 810.492 621.96 812.569 621.96Z" fill="#3F3D56"/>
<path d="M826.639 575.91C827.152 575.256 827.62 574.568 828.039 573.85L818.159 572.23L828.849 572.3C829.87 570.069 830.426 567.653 830.484 565.2C830.543 562.747 830.102 560.308 829.189 558.03L814.849 565.47L828.069 555.75C826.829 553.615 825.162 551.757 823.173 550.294C821.184 548.83 818.915 547.791 816.508 547.242C814.1 546.693 811.605 546.645 809.178 547.102C806.751 547.558 804.444 548.509 802.4 549.896C800.357 551.282 798.62 553.074 797.299 555.16C795.977 557.246 795.099 559.582 794.719 562.022C794.339 564.462 794.466 566.954 795.09 569.344C795.715 571.733 796.824 573.968 798.349 575.91C797.546 576.926 796.855 578.025 796.289 579.19L809.119 585.86L795.439 581.27C794.484 584.104 794.25 587.131 794.758 590.078C795.266 593.025 796.5 595.8 798.349 598.15C796.263 600.806 794.966 603.995 794.607 607.352C794.247 610.71 794.839 614.101 796.316 617.139C797.792 620.176 800.093 622.736 802.956 624.528C805.818 626.319 809.127 627.269 812.504 627.269C815.881 627.269 819.19 626.319 822.053 624.528C824.916 622.736 827.217 620.176 828.693 617.139C830.169 614.101 830.762 610.71 830.402 607.352C830.042 603.995 828.745 600.806 826.659 598.15C829.158 594.976 830.517 591.054 830.517 587.015C830.517 582.976 829.158 579.054 826.659 575.88L826.639 575.91Z" fill="#F9A826"/>
<path opacity="0.1" d="M794.469 587.01C794.467 591.055 795.835 594.981 798.349 598.15C796.263 600.806 794.966 603.995 794.606 607.352C794.246 610.71 794.839 614.101 796.315 617.139C797.792 620.176 800.093 622.736 802.955 624.528C805.818 626.319 809.127 627.269 812.504 627.269C815.881 627.269 819.19 626.319 822.052 624.528C824.915 622.736 827.216 620.176 828.692 617.139C830.169 614.101 830.761 610.71 830.401 607.352C830.042 603.995 828.745 600.806 826.659 598.15C829.049 595.08 794.469 584.99 794.469 587.01Z" fill="black"/>
<path d="M148.42 785.81C174.095 785.81 194.91 781.807 194.91 776.87C194.91 771.933 174.095 767.93 148.42 767.93C122.744 767.93 101.93 771.933 101.93 776.87C101.93 781.807 122.744 785.81 148.42 785.81Z" fill="#F9A826"/>
<path d="M147.64 780.16C150.628 780.16 153.05 776.986 153.05 773.07C153.05 769.154 150.628 765.98 147.64 765.98C144.653 765.98 142.23 769.154 142.23 773.07C142.23 776.986 144.653 780.16 147.64 780.16Z" fill="#3F3D56"/>
<path d="M147.64 771.5C150.628 771.5 153.05 768.326 153.05 764.41C153.05 760.494 150.628 757.32 147.64 757.32C144.653 757.32 142.23 760.494 142.23 764.41C142.23 768.326 144.653 771.5 147.64 771.5Z" fill="#3F3D56"/>
<path d="M147.64 762.84C150.628 762.84 153.05 759.666 153.05 755.75C153.05 751.834 150.628 748.66 147.64 748.66C144.653 748.66 142.23 751.834 142.23 755.75C142.23 759.666 144.653 762.84 147.64 762.84Z" fill="#3F3D56"/>
<path d="M147.64 754.18C150.628 754.18 153.05 751.006 153.05 747.09C153.05 743.174 150.628 740 147.64 740C144.653 740 142.23 743.174 142.23 747.09C142.23 751.006 144.653 754.18 147.64 754.18Z" fill="#3F3D56"/>
<path d="M147.64 745.52C150.628 745.52 153.05 742.346 153.05 738.43C153.05 734.514 150.628 731.34 147.64 731.34C144.653 731.34 142.23 734.514 142.23 738.43C142.23 742.346 144.653 745.52 147.64 745.52Z" fill="#3F3D56"/>
<path d="M147.64 736.85C150.628 736.85 153.05 733.676 153.05 729.76C153.05 725.844 150.628 722.67 147.64 722.67C144.653 722.67 142.23 725.844 142.23 729.76C142.23 733.676 144.653 736.85 147.64 736.85Z" fill="#3F3D56"/>
<path d="M147.64 728.19C150.628 728.19 153.05 725.016 153.05 721.1C153.05 717.184 150.628 714.01 147.64 714.01C144.653 714.01 142.23 717.184 142.23 721.1C142.23 725.016 144.653 728.19 147.64 728.19Z" fill="#3F3D56"/>
<path d="M167.899 661.84C168.631 660.885 169.3 659.883 169.899 658.84L155.679 656.5L171.059 656.62C172.533 653.408 173.337 649.929 173.421 646.395C173.506 642.862 172.869 639.349 171.549 636.07L150.929 646.81L169.929 632.81C168.15 629.723 165.754 627.036 162.89 624.916C160.026 622.796 156.756 621.289 153.284 620.49C149.811 619.69 146.212 619.614 142.709 620.268C139.206 620.921 135.876 622.289 132.925 624.287C129.975 626.285 127.468 628.869 125.561 631.879C123.654 634.888 122.387 638.259 121.84 641.78C121.294 645.3 121.479 648.896 122.383 652.343C123.288 655.789 124.894 659.012 127.099 661.81C125.931 663.27 124.925 664.853 124.099 666.53L142.569 676.13L122.879 669.52C121.499 673.618 121.166 677.996 121.91 682.256C122.654 686.516 124.452 690.522 127.139 693.91C124.131 697.735 122.259 702.329 121.738 707.167C121.217 712.006 122.069 716.893 124.195 721.27C126.321 725.647 129.635 729.338 133.76 731.92C137.885 734.502 142.653 735.872 147.519 735.872C152.386 735.872 157.154 734.502 161.278 731.92C165.403 729.338 168.718 725.647 170.844 721.27C172.97 716.893 173.821 712.006 173.3 707.167C172.78 702.329 170.908 697.735 167.899 693.91C171.495 689.341 173.45 683.695 173.45 677.88C173.45 672.065 171.495 666.419 167.899 661.85V661.84Z" fill="#F9A826"/>
<path opacity="0.1" d="M121.59 677.91C121.591 683.715 123.546 689.351 127.14 693.91C124.131 697.735 122.259 702.329 121.739 707.167C121.218 712.005 122.069 716.893 124.195 721.27C126.321 725.647 129.636 729.338 133.761 731.92C137.886 734.502 142.654 735.872 147.52 735.872C152.386 735.872 157.154 734.502 161.279 731.92C165.404 729.338 168.718 725.647 170.844 721.27C172.97 716.893 173.822 712.005 173.301 707.167C172.78 702.329 170.909 697.735 167.9 693.91C171.35 689.49 121.59 674.96 121.59 677.91Z" fill="black"/>
</g>
<defs>
<linearGradient id="paint0_linear_816_1938" x1="601.88" y1="766.347" x2="588.644" y2="438.223" gradientUnits="userSpaceOnUse">
<stop stop-color="#808080" stop-opacity="0.25"/>
<stop offset="0.54" stop-color="#808080" stop-opacity="0.12"/>
<stop offset="1" stop-color="#808080" stop-opacity="0.1"/>
</linearGradient>
<clipPath id="clip0_816_1938">
<rect width="1022.7" height="785.81" fill="white"/>
</clipPath>
</defs>
</svg>
