<svg width="14" height="14" viewBox="0 0 14 14" fill="none" xmlns="http://www.w3.org/2000/svg">
<path fill-rule="evenodd" clip-rule="evenodd" d="M7.00216 0.599976C5.26401 0.599976 5.04588 0.607576 4.3632 0.638643C3.68186 0.669843 3.21679 0.777711 2.80985 0.935979C2.38891 1.09945 2.03184 1.31812 1.67611 1.67399C1.3201 2.02972 1.10143 2.38679 0.937433 2.8076C0.778764 3.21467 0.670763 3.67987 0.640096 4.36095C0.609563 5.04362 0.601562 5.26189 0.601562 7.00004C0.601562 8.73819 0.609296 8.95566 0.64023 9.63834C0.671563 10.3197 0.779431 10.7847 0.937566 11.1917C1.10117 11.6126 1.31984 11.9697 1.67571 12.3254C2.03131 12.6814 2.38838 12.9006 2.80905 13.0641C3.21626 13.2224 3.68146 13.3302 4.36267 13.3614C5.04534 13.3925 5.26335 13.4001 7.00136 13.4001C8.73965 13.4001 8.95712 13.3925 9.63979 13.3614C10.3211 13.3302 10.7867 13.2224 11.1939 13.0641C11.6147 12.9006 11.9713 12.6814 12.3269 12.3254C12.6829 11.9697 12.9016 11.6126 13.0656 11.1918C13.2229 10.7847 13.3309 10.3195 13.3629 9.63847C13.3936 8.9558 13.4016 8.73819 13.4016 7.00004C13.4016 5.26189 13.3936 5.04375 13.3629 4.36108C13.3309 3.67974 13.2229 3.21467 13.0656 2.80773C12.9016 2.38679 12.6829 2.02972 12.3269 1.67399C11.9709 1.31798 11.6149 1.09931 11.1935 0.935979C10.7855 0.777711 10.3202 0.669843 9.63886 0.638643C8.95618 0.607576 8.73885 0.599976 7.00016 0.599976H7.00216ZM6.428 1.7533C6.5984 1.75304 6.78853 1.7533 7.00214 1.7533C8.71095 1.7533 8.91349 1.75944 9.58829 1.7901C10.2123 1.81864 10.551 1.9229 10.7766 2.01051C11.0752 2.12651 11.2882 2.26517 11.512 2.48918C11.7361 2.71318 11.8747 2.92652 11.991 3.22518C12.0786 3.45052 12.183 3.78919 12.2114 4.4132C12.2421 5.08787 12.2487 5.29054 12.2487 6.99856C12.2487 8.70658 12.2421 8.90924 12.2114 9.58392C12.1829 10.2079 12.0786 10.5466 11.991 10.7719C11.875 11.0706 11.7361 11.2833 11.512 11.5071C11.288 11.7311 11.0754 11.8698 10.7766 11.9858C10.5512 12.0738 10.2123 12.1778 9.58829 12.2063C8.91362 12.237 8.71095 12.2437 7.00214 12.2437C5.29318 12.2437 5.09065 12.237 4.41597 12.2063C3.79197 12.1775 3.4533 12.0733 3.22756 11.9857C2.92889 11.8697 2.71556 11.731 2.49155 11.507C2.26755 11.283 2.12888 11.0702 2.01262 10.7714C1.92502 10.5461 1.82061 10.2074 1.79221 9.58339C1.76155 8.90871 1.75541 8.70604 1.75541 6.99696C1.75541 5.28787 1.76155 5.08627 1.79221 4.4116C1.82075 3.78759 1.92502 3.44892 2.01262 3.22332C2.12862 2.92465 2.26755 2.71131 2.49155 2.48731C2.71556 2.26331 2.92889 2.12464 3.22756 2.00837C3.45316 1.92037 3.79197 1.81637 4.41597 1.7877C5.00638 1.76104 5.23518 1.75304 6.428 1.7517V1.7533ZM10.4184 2.81598C9.99444 2.81598 9.65043 3.15959 9.65043 3.58372C9.65043 4.00773 9.99444 4.35173 10.4184 4.35173C10.8424 4.35173 11.1864 4.00773 11.1864 3.58372C11.1864 3.15972 10.8424 2.81598 10.4184 2.81598ZM7.00217 3.71332C5.18709 3.71332 3.71547 5.18494 3.71547 7.00002C3.71547 8.81511 5.18709 10.2861 7.00217 10.2861C8.81726 10.2861 10.2883 8.81511 10.2883 7.00002C10.2883 5.18494 8.81726 3.71332 7.00217 3.71332ZM7.00215 4.86667C8.18029 4.86667 9.1355 5.82175 9.1355 7.00002C9.1355 8.17817 8.18029 9.13338 7.00215 9.13338C5.82387 9.13338 4.86879 8.17817 4.86879 7.00002C4.86879 5.82175 5.82387 4.86667 7.00215 4.86667Z" fill="white"/>
</svg>
