<svg width="94" height="32" viewBox="0 0 94 32" fill="none"
    xmlns="http://www.w3.org/2000/svg">
    <path d="M19.75 7.05175H23.6804V9.34891C24.1077 8.44073 24.6725 7.75388 25.3746 7.28071C26.0767 6.80754 26.8552 6.57858 27.6947 6.57858C28.2899 6.57858 28.9081 6.73885 29.5568 7.05175L28.1297 10.9974C27.5955 10.7303 27.1528 10.5929 26.8018 10.5929C26.0996 10.5929 25.5044 11.0279 25.0159 11.9056C24.5275 12.7756 24.2833 14.4927 24.2833 17.0417L24.2985 17.9347V25.3146H19.75V7.05175Z" fill="black"/>
    <path d="M41.7757 6.57858C43.5005 6.57858 45.1184 7.00596 46.6371 7.86835C48.1559 8.73074 49.3388 9.8984 50.1859 11.379C51.033 12.8595 51.4604 14.4546 51.4604 16.1641C51.4604 17.8889 51.033 19.4992 50.1783 21.0026C49.3235 22.5061 48.1559 23.6737 46.6753 24.5209C45.1947 25.368 43.5692 25.7877 41.791 25.7877C39.1733 25.7877 36.9372 24.8567 35.0826 22.9945C33.2281 21.1324 32.3047 18.8657 32.3047 16.2022C32.3047 13.348 33.3502 10.9668 35.4413 9.06654C37.2806 7.41044 39.3946 6.57858 41.7757 6.57858ZM41.852 10.8905C40.4249 10.8905 39.242 11.3866 38.2956 12.3787C37.3493 13.3709 36.8761 14.6377 36.8761 16.1793C36.8761 17.7668 37.3417 19.0565 38.2804 20.041C39.2191 21.0255 40.402 21.5216 41.8368 21.5216C43.2715 21.5216 44.4697 21.0255 45.4161 20.0258C46.37 19.026 46.8432 17.7515 46.8432 16.1793C46.8432 14.6148 46.3777 13.3403 45.439 12.3635C44.5079 11.3866 43.3097 10.8905 41.852 10.8905Z" fill="black"/>
    <path d="M56.0859 0H60.6726V25.3146H56.0859V0Z" fill="black"/>
    <path d="M65.7031 0H70.2898V25.3146H65.7031V0Z" fill="black"/>
    <path d="M73.8008 7.05176H78.4867L83.2336 18.5147L88.469 7.05176H93.1702L81.7302 32H76.9985L80.7533 23.9561L73.8008 7.05176Z" fill="black"/>
    <path d="M14.4317 14.363C13.7372 13.3022 12.6382 12.4245 11.1424 11.7224C12.0353 11.0508 12.684 10.3334 13.0808 9.56259C13.4777 8.79942 13.6761 7.94466 13.6761 6.99832C13.6761 5.55592 13.2411 4.30431 12.3635 3.23586C11.4858 2.17504 10.3105 1.44239 8.82995 1.05317C7.7844 0.763164 6.14357 0.618164 3.88457 0.618164H0V5.09801H4.70117H5.60172H5.91462C6.9907 5.09801 7.79967 5.32696 8.32626 5.77724C8.85285 6.22751 9.11996 6.84568 9.11996 7.61649C9.11996 8.44835 8.84522 9.09705 8.2881 9.57786C7.73098 10.0587 6.88385 10.3029 5.73146 10.3029H5.60172H4.70117H0V25.3146H6.92201C8.9139 25.3146 10.4784 25.0322 11.6079 24.4674C12.7374 23.9027 13.6609 23.0479 14.3782 21.9108C15.0956 20.766 15.4543 19.5068 15.4543 18.1178C15.4696 16.6678 15.1262 15.4162 14.4317 14.363ZM9.83735 20.0944C9.15812 20.5905 7.84546 20.8347 5.89172 20.8347H4.71643V14.508H5.6933C7.54782 14.508 8.86811 14.8132 9.66945 15.4314C10.4632 16.0496 10.8676 16.8891 10.8676 17.9499C10.8524 18.8886 10.5166 19.606 9.83735 20.0944Z" fill="black"/>
</svg>
