<svg width="14" height="10" viewBox="0 0 14 10" fill="none" xmlns="http://www.w3.org/2000/svg">
<path fill-rule="evenodd" clip-rule="evenodd" d="M12.0024 0.87464C12.5531 1.02577 12.9869 1.47108 13.1341 2.03659C13.4016 3.0615 13.4016 5.19998 13.4016 5.19998C13.4016 5.19998 13.4016 7.33838 13.1341 8.36337C12.9869 8.92887 12.5531 9.37418 12.0024 9.52538C11.0043 9.79998 7.00156 9.79998 7.00156 9.79998C7.00156 9.79998 2.99887 9.79998 2.00069 9.52538C1.44993 9.37418 1.01618 8.92887 0.868981 8.36337C0.601562 7.33838 0.601562 5.19998 0.601562 5.19998C0.601562 5.19998 0.601562 3.0615 0.868981 2.03659C1.01618 1.47108 1.44993 1.02577 2.00069 0.87464C2.99887 0.599976 7.00156 0.599976 7.00156 0.599976C7.00156 0.599976 11.0043 0.599976 12.0024 0.87464ZM5.80157 3.39993V7.39993L9.00157 5.40001L5.80157 3.39993Z" fill="white"/>
</svg>
